<svg fill="none" height="100%" width="100%" viewBox="0 0 166 150" xmlns:xlink="http://www.w3.org/1999/xlink" xmlns="http://www.w3.org/2000/svg"><g transform="matrix(1,0,0,1,50.96,126.02)" id="i0"><path d="M31.6,9.44C49.05,9.44,63.19,7.33,63.19,4.72C63.19,2.11,49.05,0,31.6,0C14.15,0,0,2.11,0,4.72C0,7.33,14.15,9.44,31.6,9.44C31.6,9.44,31.6,9.44,31.6,9.44Z" fill="#d7c9b1" /></g><g id="i0"><g transform="translate(80.59,65.74)"><animateTransform repeatCount="indefinite" type="translate" attributeName="transform" dur="5s" begin="0s" calcMode="spline" values="80.59 65.74; 80.59 65.74; 80.59 53.74; 80.59 65.74; 80.59 53.74; 82.859 65.958; 82.859 65.958" keyTimes="0; 0.2; 0.4; 0.6; 0.746667; 0.896667; 1" keySplines="0.33 1 0.68 1; 0.33 1 0.68 1; 0.33 1 0.68 1; 0 0 1 1; 0 0 1 1; 0 0 1 1" fill="freeze" /><g transform="translate(-41.11,-35.22)"><path d="M82.22,34.49C82.22,54.14,63.34,70.44,40.93,70.44C18.52,70.44,0,54.14,0,34.49C0,14.84,12.2,0,39.85,0C70.37,0,82.22,14.84,82.22,34.49C82.22,34.49,82.22,34.49,82.22,34.49Z" fill="#ffb045" /></g></g></g><g id="i0"><g transform="translate(61.2,28.34)"><animateTransform repeatCount="indefinite" type="translate" attributeName="transform" dur="5s" begin="0s" calcMode="spline" values="61.2 28.34; 61.2 28.34; 61.2 16.34; 61.2 28.34; 61.2 16.34; 63.469 28.558; 63.469 28.558" keyTimes="0; 0.2; 0.4; 0.6; 0.746667; 0.896667; 1" keySplines="0.33 1 0.68 1; 0.33 1 0.68 1; 0.33 1 0.68 1; 0 0 1 1; 0 0 1 1; 0 0 1 1" fill="freeze" /><g transform="translate(-11.31,-12.35)"><path d="M12.21,0.01C6.75,0.3,1.8,16.59,0,24.7C5.74,18.6,17.47,16.1,22.62,15.62C19.75,10.9,17.67,-0.28,12.21,0.01C12.21,0.01,12.21,0.01,12.21,0.01Z" fill="#ffb045" /></g></g></g><g id="i0"><g transform="translate(101.05,29.55)"><animateTransform repeatCount="indefinite" type="translate" attributeName="transform" dur="5s" begin="0s" calcMode="spline" values="101.05 29.55; 101.05 29.55; 101.05 17.55; 101.05 29.55; 101.05 17.55; 103.319 29.768; 103.319 29.768" keyTimes="0; 0.2; 0.4; 0.6; 0.746667; 0.896667; 1" keySplines="0.33 1 0.68 1; 0.33 1 0.68 1; 0.33 1 0.68 1; 0 0 1 1; 0 0 1 1; 0 0 1 1" fill="freeze" /><g transform="translate(-10.95,-12.23)"><path d="M0,15.74C1.92,9.93,7.19,-1.32,12.93,0.13C19.94,1.9,21.81,23.73,21.9,24.44C21.9,24.45,21.9,24.46,21.9,24.46C21.9,24.47,21.9,24.46,21.9,24.44C21.69,23.92,11.37,15.74,0,15.74C0,15.74,0,15.74,0,15.74Z" fill="#ffb045" /></g></g></g><g id="i0"><g transform="translate(79.93,113.97)"><animateTransform repeatCount="indefinite" type="translate" attributeName="transform" dur="5s" begin="0s" calcMode="spline" values="79.93 113.97; 79.93 113.97; 79.93 101.97; 79.93 113.97; 79.93 101.97; 82.199 114.188; 82.199 114.188" keyTimes="0; 0.2; 0.4; 0.6; 0.746667; 0.896667; 1" keySplines="0.33 1 0.68 1; 0.33 1 0.68 1; 0.33 1 0.68 1; 0 0 1 1; 0 0 1 1; 0 0 1 1" fill="freeze" /><g transform="translate(-20.47,-19.61)"><path d="M2.02,36.88C-3.12,30.47,2.74,9.62,6.31,0C15.73,5.13,30.94,2.14,37.36,0C40.22,11.86,40.93,28.72,40.93,35.67C30.08,41.44,10.47,38.88,2.02,36.88C2.02,36.88,2.02,36.88,2.02,36.88Z" fill="#ffb045" /></g></g></g><g id="i0"><g transform="translate(110.48,117.67)"><animateTransform repeatCount="indefinite" type="translate" attributeName="transform" dur="5s" begin="0s" calcMode="spline" values="110.48 117.67; 109.01 115.5; 109.01 103.5; 109.01 115.5; 109.01 103.5; 111.279 115.718; 111.279 115.718" keyTimes="0; 0.2; 0.4; 0.6; 0.746667; 0.896667; 1" keySplines="0.33 1 0.68 1; 0.33 1 0.68 1; 0.33 1 0.68 1; 0 0 1 1; 0 0 1 1; 0 0 1 1" fill="freeze" /><g transform="translate(-12.93,-9.8)"><animateTransform repeatCount="indefinite" type="translate" attributeName="transform" dur="5s" begin="0s" calcMode="spline" values="-12.93 -9.8; -11.5 -11.5; -11.5 -11.5; -11.5 -11.5; -11.5 -11.5" keyTimes="0; 0.2; 0.4; 0.6; 1" keySplines="0.33 1 0.68 1; 0.33 1 0.68 1; 0.33 1 0.68 1; 0 0 1 1" fill="freeze" /><path d="M4.12,9.62C3.46,12.19,1.1,12.6,0,12.48C0,12.48,0,19.61,0,19.61C9.56,17.9,11.95,12.23,11.95,9.62C17.31,2.85,18.95,9.62,22.25,9.62C25.55,9.62,30.08,0,17.72,0C5.36,0,4.94,6.41,4.12,9.62C4.12,9.62,4.12,9.62,4.12,9.62Z" fill="#ffb045"><animate repeatCount="indefinite" attributeName="d" dur="5s" begin="0s" calcMode="spline" values="M4.12,9.62C3.46,12.19,1.1,12.6,0,12.48C0,12.48,0,19.61,0,19.61C9.56,17.9,11.95,12.23,11.95,9.62C17.31,2.85,18.95,9.62,22.25,9.62C25.55,9.62,30.08,0,17.72,0C5.36,0,4.94,6.41,4.12,9.62C4.12,9.62,4.12,9.62,4.12,9.62Z; M3.67,11.29C3.08,14.3,0.98,14.78,0,14.64C0,14.64,0,23,0,23C8.5,20.99,10.63,14.36,10.63,11.29C15.39,3.34,16.86,11.29,19.79,11.29C22.72,11.29,26.76,0,15.76,0C4.76,0,4.4,7.53,3.67,11.29C3.67,11.29,3.67,11.29,3.67,11.29Z; M3.67,11.29C3.08,14.3,0.98,14.78,0,14.64C0,14.64,0,23,0,23C8.5,20.99,10.63,14.36,10.63,11.29C15.39,3.34,16.86,11.29,19.79,11.29C22.72,11.29,26.76,0,15.76,0C4.76,0,4.4,7.53,3.67,11.29C3.67,11.29,3.67,11.29,3.67,11.29Z; M3.67,11.29C3.08,14.3,0.98,14.78,0,14.64C0,14.64,0,23,0,23C8.5,20.99,10.63,14.36,10.63,11.29C15.39,3.34,16.86,11.29,19.79,11.29C22.72,11.29,26.76,0,15.76,0C4.76,0,4.4,7.53,3.67,11.29C3.67,11.29,3.67,11.29,3.67,11.29Z; M3.67,11.29C3.08,14.3,0.98,14.78,0,14.64C0,14.64,0,23,0,23C8.5,20.99,10.63,14.36,10.63,11.29C15.39,3.34,16.86,11.29,19.79,11.29C22.72,11.29,26.76,0,15.76,0C4.76,0,4.4,7.53,3.67,11.29C3.67,11.29,3.67,11.29,3.67,11.29Z" keyTimes="0; 0.2; 0.4; 0.6; 1" keySplines="0.33 1 0.68 1; 0.33 1 0.68 1; 0.33 1 0.68 1; 0 0 1 1" fill="freeze" /></path></g></g></g><g id="i0"><g transform="translate(47.7,85.85)"><animateTransform repeatCount="indefinite" type="translate" attributeName="transform" dur="5s" begin="0s" calcMode="spline" values="47.7 85.85; 46.16 88.929; 47.7 85.85; 47.7 73.85; 47.7 85.85; 47.7 73.85; 49.969 86.068; 49.969 86.068" keyTimes="0; 0.023333; 0.2; 0.4; 0.6; 0.746667; 0.896667; 1" keySplines="0.33 1 0.68 1; 0 0 1 1; 0.33 1 0.68 1; 0.33 1 0.68 1; 0 0 1 1; 0 0 1 1; 0 0 1 1" fill="freeze" /><g transform="rotate(0)"><animateTransform repeatCount="indefinite" type="rotate" attributeName="transform" dur="5s" begin="0s" calcMode="spline" values="0; -7.35; 0; -0.8; -0.8; -0.8" keyTimes="0; 0.2; 0.286667; 0.4; 0.6; 1" keySplines="0.33 1 0.68 1; 0.33 1 0.68 1; 0 0 1 1; 0.33 1 0.68 1; 0 0 1 1" fill="freeze" /><g transform="translate(-21.58,-19.83)"><path d="M1.51,10.25C5.82,17.8,27,33,37.05,39.66C37.05,39.66,43.16,22.6,43.16,22.6C40.86,21.73,20.89,8.44,11.2,1.9C6.53,-2.46,-3.88,0.81,1.51,10.25C1.51,10.25,1.51,10.25,1.51,10.25Z" fill="#ffb045" /></g></g></g></g><g id="i0"><g transform="translate(112.94,87.38)"><animateTransform repeatCount="indefinite" type="translate" attributeName="transform" dur="5s" begin="0s" calcMode="spline" values="112.94 87.38; 112.94 87.38; 112.94 75.38; 112.94 87.38; 112.94 75.38; 115.209 87.598; 115.209 87.598" keyTimes="0; 0.2; 0.4; 0.6; 0.746667; 0.896667; 1" keySplines="0.33 1 0.68 1; 0.33 1 0.68 1; 0.33 1 0.68 1; 0 0 1 1; 0 0 1 1; 0 0 1 1" fill="freeze" /><g transform="rotate(0)"><animateTransform repeatCount="indefinite" type="rotate" attributeName="transform" dur="5s" begin="0s" calcMode="spline" values="0; 10.39; 4.31; 4.31; 4.31" keyTimes="0; 0.2; 0.4; 0.6; 1" keySplines="0.33 1 0.68 1; 0.33 1 0.68 1; 0.33 1 0.68 1; 0 0 1 1" fill="freeze" /><g transform="translate(-21.7,-20.2)"><path d="M43.38,8.06C36.87,20.76,17.36,34.9,8.43,40.38C7.58,40.91,2.46,28.91,0,22.84C5.05,19.66,18.05,11.31,29.59,3.4C41.13,-4.51,43.59,3.21,43.38,8.06C43.38,8.06,43.38,8.06,43.38,8.06Z" fill="#ffb045" /></g></g></g></g><g id="i0"><g transform="translate(66.04,61.02)"><animateTransform repeatCount="indefinite" type="translate" attributeName="transform" dur="5s" begin="0s" calcMode="spline" values="66.04 61.02; 66.04 61.02; 66.04 49.02; 66.04 61.02; 66.04 49.02; 68.309 61.238; 68.309 61.238" keyTimes="0; 0.2; 0.4; 0.6; 0.746667; 0.896667; 1" keySplines="0.33 1 0.68 1; 0.33 1 0.68 1; 0.33 1 0.68 1; 0 0 1 1; 0 0 1 1; 0 0 1 1" fill="freeze" /><g transform="translate(-12.21,-15.61)"><path d="M12.21,31.23C18.95,31.23,24.41,24.23,24.41,15.61C24.41,6.99,18.95,0,12.21,0C5.47,0,0,6.99,0,15.61C0,24.23,5.47,31.23,12.21,31.23C12.21,31.23,12.21,31.23,12.21,31.23Z" fill="#fdfdfd" /></g></g></g><g id="i0"><g transform="translate(92.61,61.02)"><animateTransform repeatCount="indefinite" type="translate" attributeName="transform" dur="5s" begin="0s" calcMode="spline" values="92.61 61.02; 92.61 61.02; 92.61 49.02; 92.61 61.02; 92.61 49.02; 94.879 61.238; 94.879 61.238" keyTimes="0; 0.2; 0.4; 0.6; 0.746667; 0.896667; 1" keySplines="0.33 1 0.68 1; 0.33 1 0.68 1; 0.33 1 0.68 1; 0 0 1 1; 0 0 1 1; 0 0 1 1" fill="freeze" /><g transform="translate(-12.21,-15.61)"><path d="M12.21,31.23C18.95,31.23,24.41,24.23,24.41,15.61C24.41,6.99,18.95,0,12.21,0C5.47,0,0,6.99,0,15.61C0,24.23,5.47,31.23,12.21,31.23C12.21,31.23,12.21,31.23,12.21,31.23Z" fill="#fdfdfd" /></g></g></g><g id="i0"><g transform="translate(70.35,64.65)"><animateTransform repeatCount="indefinite" type="translate" attributeName="transform" dur="5s" begin="0s" calcMode="spline" values="70.35 64.65; 70.35 64.65; 70.35 52.65; 70.35 64.65; 70.35 52.65; 72.619 64.868; 72.619 64.868" keyTimes="0; 0.2; 0.4; 0.6; 0.746667; 0.896667; 1" keySplines="0.33 1 0.68 1; 0.33 1 0.68 1; 0.33 1 0.68 1; 0 0 1 1; 0 0 1 1; 0 0 1 1" fill="freeze" /><g transform="translate(-4.31,-5.45)"><path d="M4.31,10.89C6.69,10.89,8.62,8.46,8.62,5.45C8.62,2.44,6.69,0,4.31,0C1.93,0,0,2.44,0,5.45C0,8.46,1.93,10.89,4.31,10.89C4.31,10.89,4.31,10.89,4.31,10.89Z" fill="#000000" /></g></g></g><g id="i0"><g transform="translate(88.3,65.38)"><animateTransform repeatCount="indefinite" type="translate" attributeName="transform" dur="5s" begin="0s" calcMode="spline" values="88.3 65.38; 88.3 65.38; 88.3 53.38; 88.3 65.38; 88.3 53.38; 90.569 65.598; 90.569 65.598" keyTimes="0; 0.2; 0.4; 0.6; 0.746667; 0.896667; 1" keySplines="0.33 1 0.68 1; 0.33 1 0.68 1; 0.33 1 0.68 1; 0 0 1 1; 0 0 1 1; 0 0 1 1" fill="freeze" /><g transform="translate(-4.31,-5.45)"><path d="M4.31,10.89C6.69,10.89,8.62,8.46,8.62,5.45C8.62,2.44,6.69,0,4.31,0C1.93,0,0,2.44,0,5.45C0,8.46,1.93,10.89,4.31,10.89C4.31,10.89,4.31,10.89,4.31,10.89Z" fill="#000000" /></g></g></g><g id="i0"><g transform="translate(121.83,63.54)"><animateTransform repeatCount="indefinite" type="translate" attributeName="transform" dur="5s" begin="0s" calcMode="spline" values="121.83 63.54; 121.83 63.54; 121.83 51.54; 121.83 63.54; 121.83 51.54; 124.099 63.758; 124.099 63.758" keyTimes="0; 0.2; 0.4; 0.6; 0.746667; 0.896667; 1" keySplines="0.33 1 0.68 1; 0.33 1 0.68 1; 0.33 1 0.68 1; 0 0 1 1; 0 0 1 1; 0 0 1 1" fill="freeze" /><g transform="translate(-6.1,-2.54)"><path d="M12.21,0C12.21,0,0,5.08,0,5.08C0,5.08,12.21,0,12.21,0Z" stroke-linecap="round" stroke-width="3" stroke="#c15c18" /></g></g></g><g id="i0"><g transform="translate(122.05,71.55)"><animateTransform repeatCount="indefinite" type="translate" attributeName="transform" dur="5s" begin="0s" calcMode="spline" values="122.05 71.55; 122.05 71.55; 122.05 59.55; 122.05 71.55; 122.05 59.55; 122.05 59.55" keyTimes="0; 0.2; 0.4; 0.6; 0.746667; 1" keySplines="0.33 1 0.68 1; 0.33 1 0.68 1; 0.33 1 0.68 1; 0 0 1 1; 0 0 1 1" fill="freeze" /><g transform="translate(-5.74,0)"><path d="M11.49,0C11.49,0,0,0,0,0C0,0,11.49,0,11.49,0Z" stroke-linecap="round" stroke-width="3" stroke="#c15c18" /></g></g></g><g id="i0"><g transform="translate(117.39,78.45)"><animateTransform repeatCount="indefinite" type="translate" attributeName="transform" dur="5s" begin="0s" calcMode="spline" values="117.39 78.45; 117.39 78.45; 117.39 66.45; 117.39 78.45; 117.39 66.45; 117.39 66.45" keyTimes="0; 0.2; 0.4; 0.6; 0.746667; 1" keySplines="0.33 1 0.68 1; 0.33 1 0.68 1; 0.33 1 0.68 1; 0 0 1 1; 0 0 1 1" fill="freeze" /><g transform="translate(-3.23,-1.82)"><path d="M6.46,3.63C6.46,3.63,0,0,0,0C0,0,6.46,3.63,6.46,3.63Z" stroke-linecap="round" stroke-width="3" stroke="#c15c18" /></g></g></g><g id="i0"><g transform="translate(38.15,62.22)"><animateTransform repeatCount="indefinite" type="translate" attributeName="transform" dur="5s" begin="0s" calcMode="spline" values="38.15 62.22; 38.15 62.22; 38.15 50.22; 38.15 62.22; 38.15 50.22; 40.419 62.438; 40.419 62.438" keyTimes="0; 0.2; 0.4; 0.6; 0.746667; 0.896667; 1" keySplines="0.33 1 0.68 1; 0.33 1 0.68 1; 0.33 1 0.68 1; 0 0 1 1; 0 0 1 1; 0 0 1 1" fill="freeze" /><g transform="translate(-5.25,-2.57)"><path d="M0,0C0,0,-0.66,1.35,-0.66,1.35C-0.66,1.35,9.83,6.49,9.83,6.49C9.83,6.49,10.49,5.14,10.49,5.14C10.49,5.14,11.15,3.79,11.15,3.79C11.15,3.79,0.66,-1.35,0.66,-1.35C0.66,-1.35,0,0,0,0C0,0,0,0,0,0Z" fill="#c15c18" /><path d="M9.83,6.49C10.57,6.85,11.48,6.54,11.84,5.8C12.2,5.06,11.89,4.15,11.15,3.79C11.15,3.79,10.49,5.14,10.49,5.14C10.49,5.14,9.83,6.49,9.83,6.49C9.83,6.49,9.83,6.49,9.83,6.49Z" fill="#c15c18" /><path d="M0.66,-1.35C-0.08,-1.71,-0.99,-1.4,-1.35,-0.66C-1.71,0.08,-1.4,0.99,-0.66,1.35C-0.66,1.35,0,0,0,0C0,0,0.66,-1.35,0.66,-1.35C0.66,-1.35,0.66,-1.35,0.66,-1.35Z" fill="#c15c18" /></g></g></g><g id="i0"><g transform="translate(37.86,69.88)"><animateTransform repeatCount="indefinite" type="translate" attributeName="transform" dur="5s" begin="0s" calcMode="spline" values="37.86 69.88; 37.86 69.88; 37.86 57.88; 37.86 69.88; 37.86 57.88; 40.129 70.098; 40.129 70.098" keyTimes="0; 0.2; 0.4; 0.6; 0.746667; 0.896667; 1" keySplines="0.33 1 0.68 1; 0.33 1 0.68 1; 0.33 1 0.68 1; 0 0 1 1; 0 0 1 1; 0 0 1 1" fill="freeze" /><g transform="translate(-5.82,-0.39)"><path d="M0,0C0,0,-0.1,1.5,-0.1,1.5C-0.1,1.5,11.53,2.27,11.53,2.27C11.53,2.27,11.63,0.77,11.63,0.77C11.63,0.77,11.73,-0.72,11.73,-0.72C11.73,-0.72,0.1,-1.5,0.1,-1.5C0.1,-1.5,0,0,0,0C0,0,0,0,0,0Z" fill="#c15c18" /><path d="M11.53,2.27C12.36,2.32,13.08,1.7,13.13,0.87C13.18,0.04,12.56,-0.67,11.73,-0.72C11.73,-0.72,11.63,0.77,11.63,0.77C11.63,0.77,11.53,2.27,11.53,2.27C11.53,2.27,11.53,2.27,11.53,2.27Z" fill="#c15c18" /><path d="M0.1,-1.5C-0.73,-1.55,-1.45,-0.93,-1.5,-0.1C-1.55,0.73,-0.93,1.45,-0.1,1.5C-0.1,1.5,0,0,0,0C0,0,0.1,-1.5,0.1,-1.5C0.1,-1.5,0.1,-1.5,0.1,-1.5Z" fill="#c15c18" /></g></g></g><g id="i0"><g transform="translate(41.98,77.24)"><animateTransform repeatCount="indefinite" type="translate" attributeName="transform" dur="5s" begin="0s" calcMode="spline" values="41.98 77.24; 41.98 77.24; 41.98 65.24; 41.98 77.24; 41.98 65.24; 44.249 77.458; 44.249 77.458" keyTimes="0; 0.2; 0.4; 0.6; 0.746667; 0.896667; 1" keySplines="0.33 1 0.68 1; 0.33 1 0.68 1; 0.33 1 0.68 1; 0 0 1 1; 0 0 1 1; 0 0 1 1" fill="freeze" /><g transform="translate(-3.41,-1.58)"><path d="M0,3.17C0,3.17,0.63,4.53,0.63,4.53C0.63,4.53,7.45,1.36,7.45,1.36C7.45,1.36,6.82,0,6.82,0C6.82,0,6.19,-1.36,6.19,-1.36C6.19,-1.36,-0.63,1.81,-0.63,1.81C-0.63,1.81,0,3.17,0,3.17C0,3.17,0,3.17,0,3.17Z" fill="#c15c18" /><path d="M7.45,1.36C8.2,1.01,8.53,0.12,8.18,-0.63C7.83,-1.38,6.94,-1.71,6.19,-1.36C6.19,-1.36,6.82,0,6.82,0C6.82,0,7.45,1.36,7.45,1.36C7.45,1.36,7.45,1.36,7.45,1.36Z" fill="#c15c18" /><path d="M-0.63,1.81C-1.38,2.16,-1.71,3.05,-1.36,3.8C-1.01,4.55,-0.12,4.88,0.63,4.53C0.63,4.53,0,3.17,0,3.17C0,3.17,-0.63,1.81,-0.63,1.81C-0.63,1.81,-0.63,1.81,-0.63,1.81Z" fill="#c15c18" /></g></g></g><g id="i0"><g transform="translate(78.61,74.46)"><animateTransform repeatCount="indefinite" type="translate" attributeName="transform" dur="5s" begin="0s" calcMode="spline" values="78.61 74.46; 78.61 74.46; 78.61 62.46; 78.61 74.46; 78.61 62.46; 80.879 74.678; 80.879 74.678" keyTimes="0; 0.2; 0.4; 0.6; 0.746667; 0.896667; 1" keySplines="0.33 1 0.68 1; 0.33 1 0.68 1; 0.33 1 0.68 1; 0 0 1 1; 0 0 1 1; 0 0 1 1" fill="freeze" /><g transform="translate(-3.23,-2.18)"><path d="M3.23,4.36C5.01,4.36,6.46,3.38,6.46,2.18C6.46,0.98,5.01,0,3.23,0C1.45,0,0,0.98,0,2.18C0,3.38,1.45,4.36,3.23,4.36C3.23,4.36,3.23,4.36,3.23,4.36Z" fill="#e88528" /></g></g></g><g id="i0"><g transform="translate(78.66,82.62)"><animateTransform repeatCount="indefinite" type="translate" attributeName="transform" dur="5s" begin="0s" calcMode="spline" values="78.66 82.62; 78.66 82.62; 78.66 70.62; 78.66 82.62; 78.66 70.62; 80.929 82.838; 80.929 82.838" keyTimes="0; 0.2; 0.4; 0.6; 0.746667; 0.896667; 1" keySplines="0.33 1 0.68 1; 0.33 1 0.68 1; 0.33 1 0.68 1; 0 0 1 1; 0 0 1 1; 0 0 1 1" fill="freeze" /><g transform="translate(-7.88,-3.95)"><path d="M15.73,1.24C12.43,12.84,1.08,7.05,0.01,0.73C-0.07,0.26,0.38,-0.1,0.84,0.02C7.25,1.64,12.13,1.08,14.71,0.31C15.28,0.14,15.9,0.66,15.73,1.24C15.73,1.24,15.73,1.24,15.73,1.24Z" fill="#c15c18" /></g></g></g><g id="i0"><g transform="translate(79.31,84.06)"><animateTransform repeatCount="indefinite" type="translate" attributeName="transform" dur="5s" begin="0s" calcMode="spline" values="79.31 84.06; 79.31 84.06; 79.31 72.06; 79.31 84.06; 79.31 72.06; 81.579 84.278; 81.579 84.278" keyTimes="0; 0.2; 0.4; 0.6; 0.746667; 0.896667; 1" keySplines="0.33 1 0.68 1; 0.33 1 0.68 1; 0.33 1 0.68 1; 0 0 1 1; 0 0 1 1; 0 0 1 1" fill="freeze" /><g transform="translate(-5.04,-2.25)"><path d="M9.83,1.58C6.12,-1.18,2.25,0.22,0.27,1.62C-0.06,1.86,-0.09,2.34,0.21,2.62C3.74,5.87,7.75,4.23,9.84,2.6C10.18,2.34,10.17,1.83,9.83,1.58C9.83,1.58,9.83,1.58,9.83,1.58Z" fill="#f97534" /></g></g></g><g visibility="hidden" id="i0"><animate repeatCount="indefinite" begin="0s" calcMode="discrete" dur="5s" values="hidden; visible; visible" keyTimes="0; 0.253; 1" attributeName="visibility" /><g transform="translate(34.961,14.003)"><animateTransform repeatCount="indefinite" type="translate" attributeName="transform" dur="5s" begin="0s" calcMode="spline" values="34.961 14.003; 34.961 14.003; 30.583 36.209; 27.893 62.658; 24.307 82.831; 24.307 82.831; 24.307 82.831" keyTimes="0; 0.266667; 0.303333; 0.53; 0.793333; 0.966667; 1" keySplines="0 0 1 1; 0 0 1 1; 0 0 1 1; 0 0 1 1; 0 0 1 1; 0 0 1 1" fill="freeze" /><g transform="rotate(-18)"><animateTransform repeatCount="indefinite" type="rotate" attributeName="transform" dur="5s" begin="0s" calcMode="spline" values="-18; -18; -7; -7; 80; 97; 97" keyTimes="0; 0.266667; 0.303333; 0.53; 0.793333; 0.966667; 1" keySplines="0 0 1 1; 0 0 1 1; 0 0 1 1; 0 0 1 1; 0 0 1 1; 0 0 1 1" fill="freeze" /><g transform="scale(1,1)"><animateTransform repeatCount="indefinite" type="scale" attributeName="transform" dur="5s" begin="0s" calcMode="spline" values="1 1; 1 1; 1.087 1.17; 1.087 1.17; 1.343 1.509; 1.343 1.509" keyTimes="0; 0.266667; 0.303333; 0.53; 0.793333; 1" keySplines="0 0 1 1; 0 0 1 1; 0 0 1 1; 0 0 1 1; 0 0 1 1" fill="freeze" /><g transform="translate(-5.32,-5.74)"><path d="M0.27,4.81C-0.17,4.18,-0.06,3.31,0.54,2.83C0.54,2.83,1.99,1.66,1.99,1.66C1.99,1.66,4.18,0.23,4.18,0.23C4.83,-0.19,5.68,-0.02,6.13,0.61C6.13,0.61,10.38,6.66,10.38,6.66C10.82,7.28,10.7,8.14,10.12,8.62C10.12,8.62,8.45,10.01,8.45,10.01C8.45,10.01,6.45,11.26,6.45,11.26C5.81,11.66,4.97,11.49,4.53,10.87C4.53,10.87,0.27,4.81,0.27,4.81C0.27,4.81,0.27,4.81,0.27,4.81Z" fill="#fd617c" /></g></g></g></g></g><g id="i1"><g transform="translate(33.83,24.8)"><animateTransform repeatCount="indefinite" type="translate" attributeName="transform" dur="5s" begin="0s" calcMode="spline" values="33.83 24.8; 33.83 27.8; 33.83 32.8; 32.248 40.898; 35.236 45.008; 28.204 52.568; 22.478 55.556; 22.194 62.413; 25.534 75.002; 22.476 81.575; 30.015 89.114; 46.857 105.58; 34.116 117.968; 34.116 117.968" keyTimes="0; 0.046667; 0.106667; 0.16; 0.25; 0.303334; 0.396667; 0.443333; 0.493333; 0.58; 0.673334; 0.776667; 0.853333; 1" keySplines="0 0 1 1; 0 0 1 1; 0 0 1 1; 0 0 1 1; 0 0 1 1; 0 0 1 1; 0 0 1 1; 0 0 1 1; 0 0 1 1; 0 0 1 1; 0 0 1 1; 0 0 1 1; 0 0 1 1" fill="freeze" /><g transform="rotate(-18)"><animateTransform repeatCount="indefinite" type="rotate" attributeName="transform" dur="5s" begin="0s" calcMode="spline" values="-18; -18; -32; 42; 55; 39; 8; 54; -3; 14; 56; 127; 127; 127" keyTimes="0; 0.046667; 0.106666; 0.16; 0.303333; 0.396667; 0.443334; 0.493333; 0.58; 0.673333; 0.776667; 0.903333; 0.96; 1" keySplines="0 0 1 1; 0 0 1 1; 0 0 1 1; 0 0 1 1; 0 0 1 1; 0 0 1 1; 0 0 1 1; 0 0 1 1; 0 0 1 1; 0 0 1 1; 0 0 1 1; 0 0 1 1; 0 0 1 1" fill="freeze" /><g transform="scale(1,1)"><animateTransform repeatCount="indefinite" type="scale" attributeName="transform" dur="5s" begin="0s" calcMode="spline" values="1 1; 1 1; 0.781 1; 0.587 1; 0.744 1; 0.744 0.628; 0.867 0.655; 1.099 0.697; 1.381 0.991; 1.381 0.991" keyTimes="0; 0.05; 0.106667; 0.25; 0.303333; 0.58; 0.673334; 0.776667; 0.96; 1" keySplines="0 0 1 1; 0 0 1 1; 0 0 1 1; 0 0 1 1; 0 0 1 1; 0 0 1 1; 0 0 1 1; 0 0 1 1; 0 0 1 1" fill="freeze" /><g transform="translate(-5.32,-5.74)"><path d="M0.27,4.81C-0.17,4.18,-0.06,3.31,0.54,2.83C0.54,2.83,1.99,1.66,1.99,1.66C1.99,1.66,4.18,0.23,4.18,0.23C4.83,-0.19,5.68,-0.02,6.13,0.61C6.13,0.61,10.38,6.66,10.38,6.66C10.82,7.28,10.7,8.14,10.12,8.62C10.12,8.62,8.45,10.01,8.45,10.01C8.45,10.01,6.45,11.26,6.45,11.26C5.81,11.66,4.97,11.49,4.53,10.87C4.53,10.87,0.27,4.81,0.27,4.81C0.27,4.81,0.27,4.81,0.27,4.81Z" fill="#fd617c" /></g></g></g></g></g><g id="i0"><g transform="translate(20.92,47.61)"><animateTransform repeatCount="indefinite" type="translate" attributeName="transform" dur="5s" begin="0s" calcMode="spline" values="20.92 47.61; 31.009 64.514; 17.703 61.557; 22.8 66.668; 27.067 75.002; 39.091 94.911; 31.995 111.666; 37.711 126.45; 30.024 131.675; 30.024 131.675" keyTimes="0; 0.126667; 0.276667; 0.323334; 0.42; 0.58; 0.723334; 0.846667; 0.973333; 1" keySplines="0 0 1 1; 0 0 1 1; 0 0 1 1; 0 0 1 1; 0 0 1 1; 0 0 1 1; 0 0 1 1; 0 0 1 1; 0 0 1 1" fill="freeze" /><g transform="rotate(0)"><animateTransform repeatCount="indefinite" type="rotate" attributeName="transform" dur="5s" begin="0s" calcMode="spline" values="0; 19; 36; 19; 37; 54; 93; 99; 95; 95" keyTimes="0; 0.126667; 0.25; 0.276667; 0.42; 0.58; 0.723334; 0.846667; 0.973333; 1" keySplines="0 0 1 1; 0 0 1 1; 0 0 1 1; 0 0 1 1; 0 0 1 1; 0 0 1 1; 0 0 1 1; 0 0 1 1; 0 0 1 1" fill="freeze" /><g transform="scale(1,1)"><animateTransform repeatCount="indefinite" type="scale" attributeName="transform" dur="5s" begin="0s" calcMode="spline" values="1 1; 1.028 1.328; 0.489 1.148; 1.028 1.328; 0.601 1.206; 0.834 1.206; 0.583 1.429; 0.331 1.429; 0.331 1.429" keyTimes="0; 0.126667; 0.25; 0.276667; 0.42; 0.58; 0.723334; 0.973333; 1" keySplines="0 0 1 1; 0 0 1 1; 0 0 1 1; 0 0 1 1; 0 0 1 1; 0 0 1 1; 0 0 1 1; 0 0 1 1" fill="freeze" /><g transform="translate(-5.41,-5.4)"><path d="M0.21,5.81C-0.17,5.19,-0.03,4.38,0.54,3.92C0.54,3.92,2.78,2.1,2.78,2.1C2.78,2.1,5.49,0.25,5.49,0.25C6.07,-0.15,6.86,-0.06,7.34,0.45C7.34,0.45,9.12,2.33,9.12,2.33C9.21,2.42,9.27,2.52,9.33,2.63C9.33,2.63,10.65,5.03,10.65,5.03C10.98,5.64,10.84,6.39,10.32,6.84C10.32,6.84,7.89,8.93,7.89,8.93C7.84,8.98,7.78,9.02,7.72,9.06C7.72,9.06,5.31,10.58,5.31,10.58C4.71,10.95,3.93,10.83,3.47,10.3C3.47,10.3,1.79,8.37,1.79,8.37C1.74,8.31,1.68,8.24,1.64,8.17C1.64,8.17,0.21,5.81,0.21,5.81C0.21,5.81,0.21,5.81,0.21,5.81Z" fill="#51b4c4" /></g></g></g></g></g><g visibility="hidden" id="i0"><animate repeatCount="indefinite" begin="0s" calcMode="discrete" dur="5s" values="hidden; visible; visible" keyTimes="0; 0.66; 1" attributeName="visibility" /><g transform="translate(120.674,14.005)"><animateTransform repeatCount="indefinite" type="translate" attributeName="transform" dur="5s" begin="0s" calcMode="spline" values="120.674 14.005; 120.674 14.005; 130.811 32.491; 139.476 47.949; 150.511 55.106; 150.511 55.106" keyTimes="0; 0.68; 0.79; 0.913333; 0.98; 1" keySplines="0 0 1 1; 0 0 1 1; 0 0 1 1; 0 0 1 1; 0 0 1 1" fill="freeze" /><g transform="rotate(0)"><animateTransform repeatCount="indefinite" type="rotate" attributeName="transform" dur="5s" begin="0s" calcMode="spline" values="0; 0; -30; 5; -35; -35" keyTimes="0; 0.68; 0.79; 0.913333; 0.98; 1" keySplines="0 0 1 1; 0 0 1 1; 0 0 1 1; 0 0 1 1; 0 0 1 1" fill="freeze" /><g transform="scale(1.598,1.568)"><animateTransform repeatCount="indefinite" type="scale" attributeName="transform" dur="5s" begin="0s" calcMode="spline" values="1.598 1.568; 1.598 1.568; 2.045 1.179; 2.045 0.976; 1.479 0.723; 1.479 0.723" keyTimes="0; 0.68; 0.79; 0.913333; 0.98; 1" keySplines="0 0 1 1; 0 0 1 1; 0 0 1 1; 0 0 1 1; 0 0 1 1" fill="freeze" /><g transform="translate(-4.98,-5.25)"><path d="M4.09,0.24C4.7,-0.17,5.53,-0.05,6,0.53C6,0.53,8.09,3.11,8.09,3.11C8.09,3.11,9.74,5.74,9.74,5.74C10.14,6.38,9.99,7.24,9.38,7.69C9.38,7.69,7.73,8.92,7.73,8.92C7.73,8.92,5.91,10.23,5.91,10.23C5.27,10.69,4.38,10.54,3.92,9.9C3.92,9.9,0.27,4.82,0.27,4.82C-0.18,4.19,-0.06,3.31,0.54,2.83C0.54,2.83,1.98,1.66,1.98,1.66C1.98,1.66,4.09,0.24,4.09,0.24C4.09,0.24,4.09,0.24,4.09,0.24Z" fill="#fd793a" /></g></g></g></g></g><g id="i1"><g transform="translate(20.492,95.711)"><animateTransform repeatCount="indefinite" type="translate" attributeName="transform" dur="5s" begin="0s" calcMode="spline" values="20.492 95.711; 20.492 95.711; 41.899 104.85; 34.683 115.674; 44.304 120.003; 32.999 129.034; 32.999 129.034; 22.602 136.002; 22.602 136.002" keyTimes="0; 0.01; 0.19; 0.366667; 0.576667; 0.71; 0.806667; 0.883333; 1" keySplines="0 0 1 1; 0 0 1 1; 0 0 1 1; 0 0 1 1; 0 0 1 1; 0 0 1 1; 0 0 1 1; 0 0 1 1" fill="freeze" /><g transform="rotate(0)"><animateTransform repeatCount="indefinite" type="rotate" attributeName="transform" dur="5s" begin="0s" calcMode="spline" values="0; 0; -18; -42; -12; -42; -56; -56" keyTimes="0; 0.01; 0.19; 0.366667; 0.576667; 0.71; 0.806667; 1" keySplines="0 0 1 1; 0 0 1 1; 0 0 1 1; 0 0 1 1; 0 0 1 1; 0 0 1 1; 0 0 1 1" fill="freeze" /><g transform="scale(1,1)"><animateTransform repeatCount="indefinite" type="scale" attributeName="transform" dur="5s" begin="0s" calcMode="spline" values="1 1; 1 1; 1.029 1.232; 0.792 1.232; 0.62 1.232; 0.62 1.232" keyTimes="0; 0.01; 0.19; 0.366667; 0.576667; 1" keySplines="0 0 1 1; 0 0 1 1; 0 0 1 1; 0 0 1 1; 0 0 1 1" fill="freeze" /><g transform="translate(-4.98,-5.25)"><path d="M4.09,0.24C4.7,-0.17,5.53,-0.05,6,0.53C6,0.53,8.09,3.11,8.09,3.11C8.09,3.11,9.74,5.74,9.74,5.74C10.14,6.38,9.99,7.24,9.38,7.69C9.38,7.69,7.73,8.92,7.73,8.92C7.73,8.92,5.91,10.23,5.91,10.23C5.27,10.69,4.38,10.54,3.92,9.9C3.92,9.9,0.27,4.82,0.27,4.82C-0.18,4.19,-0.06,3.31,0.54,2.83C0.54,2.83,1.98,1.66,1.98,1.66C1.98,1.66,4.09,0.24,4.09,0.24C4.09,0.24,4.09,0.24,4.09,0.24Z" fill="#fd793a" /></g></g></g></g></g><g visibility="hidden" id="i0"><animate repeatCount="indefinite" begin="0s" calcMode="discrete" dur="5s" values="hidden; visible; visible" keyTimes="0; 0.327; 1" attributeName="visibility" /><g transform="translate(15.513,26.255)"><animateTransform repeatCount="indefinite" type="translate" attributeName="transform" dur="5s" begin="0s" calcMode="spline" values="15.513 26.255; 15.513 26.255; 36.859 37.105; 18.483 55.369; 18.483 55.369; 18.483 55.369" keyTimes="0; 0.333333; 0.543333; 0.75; 0.996667; 1" keySplines="0 0 1 1; 0 0 1 1; 0 0 1 1; 0 0 1 1; 0 0 1 1" fill="freeze" /><g transform="rotate(165)"><animateTransform repeatCount="indefinite" type="rotate" attributeName="transform" dur="5s" begin="0s" calcMode="spline" values="165; 165; 205; 234; 269; 269" keyTimes="0; 0.333333; 0.543333; 0.83; 0.946667; 1" keySplines="0 0 1 1; 0 0 1 1; 0 0 1 1; 0 0 1 1; 0 0 1 1" fill="freeze" /><g transform="scale(1.721,1.289)"><animateTransform repeatCount="indefinite" type="scale" attributeName="transform" dur="5s" begin="0s" calcMode="spline" values="1.721 1.289; 1.721 1.289; 1.304 1.812; 1.061 1.617; 1.061 1.617" keyTimes="0; 0.333333; 0.543333; 0.946667; 1" keySplines="0 0 1 1; 0 0 1 1; 0 0 1 1; 0 0 1 1" fill="freeze" /><g transform="translate(-4.68,-5.66)"><path d="M0.26,8.04C0.01,7.83,-0.07,7.49,0.06,7.19C0.06,7.19,1.6,3.73,1.6,3.73C1.63,3.67,1.67,3.61,1.71,3.56C1.71,3.56,4.5,0.25,4.5,0.25C4.76,-0.05,5.21,-0.09,5.51,0.17C5.51,0.17,9.11,3.24,9.11,3.24C9.35,3.45,9.44,3.79,9.31,4.08C9.31,4.08,7.37,8.6,7.37,8.6C7.33,8.69,7.28,8.76,7.21,8.83C7.21,8.83,4.87,11.11,4.87,11.11C4.61,11.37,4.18,11.39,3.9,11.15C3.9,11.15,0.26,8.04,0.26,8.04C0.26,8.04,0.26,8.04,0.26,8.04Z" fill="#73b356" /></g></g></g></g></g><g id="i1"><g transform="translate(142.77,94.26)"><animateTransform repeatCount="indefinite" type="translate" attributeName="transform" dur="5s" begin="0s" calcMode="spline" values="142.77 94.26; 131.939 102.383; 135.034 117.469; 119.754 123.919; 124.705 133.202; 124.705 133.202" keyTimes="0; 0.393333; 0.6; 0.693334; 0.86; 1" keySplines="0 0 1 1; 0 0 1 1; 0 0 1 1; 0 0 1 1; 0 0 1 1" fill="freeze" /><g transform="rotate(0)"><animateTransform repeatCount="indefinite" type="rotate" attributeName="transform" dur="5s" begin="0s" calcMode="spline" values="0; 17; 35; 35" keyTimes="0; 0.393334; 0.693333; 1" keySplines="0 0 1 1; 0 0 1 1; 0 0 1 1" fill="freeze" /><g transform="scale(1,1)"><animateTransform repeatCount="indefinite" type="scale" attributeName="transform" dur="5s" begin="0s" calcMode="spline" values="1 1; 0.921 1.02; 0.678 1.328; 0.678 1.328" keyTimes="0; 0.6; 0.693333; 1" keySplines="0 0 1 1; 0 0 1 1; 0 0 1 1" fill="freeze" /><g transform="translate(-4.68,-5.66)"><path d="M0.26,8.04C0.01,7.83,-0.07,7.49,0.06,7.19C0.06,7.19,1.6,3.73,1.6,3.73C1.63,3.67,1.67,3.61,1.71,3.56C1.71,3.56,4.5,0.25,4.5,0.25C4.76,-0.05,5.21,-0.09,5.51,0.17C5.51,0.17,9.11,3.24,9.11,3.24C9.35,3.45,9.44,3.79,9.31,4.08C9.31,4.08,7.37,8.6,7.37,8.6C7.33,8.69,7.28,8.76,7.21,8.83C7.21,8.83,4.87,11.11,4.87,11.11C4.61,11.37,4.18,11.39,3.9,11.15C3.9,11.15,0.26,8.04,0.26,8.04C0.26,8.04,0.26,8.04,0.26,8.04Z" fill="#73b356" /></g></g></g></g></g><g visibility="hidden" id="i0"><animate repeatCount="indefinite" begin="0s" calcMode="discrete" dur="5s" values="hidden; visible; visible" keyTimes="0; 0.593; 1" attributeName="visibility" /><g transform="translate(29.928,16.928)"><animateTransform repeatCount="indefinite" type="translate" attributeName="transform" dur="5s" begin="0s" calcMode="spline" values="29.928 16.928; 29.928 16.928; 37.574 24.999; 29.078 36.468; 36.937 41.353; 36.937 41.353" keyTimes="0; 0.603333; 0.676667; 0.82; 0.95; 1" keySplines="0 0 1 1; 0 0 1 1; 0 0 1 1; 0 0 1 1; 0 0 1 1" fill="freeze" /><g transform="rotate(12)"><animateTransform repeatCount="indefinite" type="rotate" attributeName="transform" dur="5s" begin="0s" calcMode="spline" values="12; 12; 18; -20; -20" keyTimes="0; 0.603333; 0.82; 0.95; 1" keySplines="0 0 1 1; 0 0 1 1; 0 0 1 1; 0 0 1 1" fill="freeze" /><g transform="scale(0.876,0.44)"><animateTransform repeatCount="indefinite" type="scale" attributeName="transform" dur="5s" begin="0s" calcMode="spline" values="0.876 0.44; 0.876 0.44; 1.637 0.855; 1.637 0.636; 1.637 0.636" keyTimes="0; 0.603333; 0.676667; 0.82; 1" keySplines="0 0 1 1; 0 0 1 1; 0 0 1 1; 0 0 1 1" fill="freeze" /><g transform="translate(-4.86,-4.91)"><path d="M0.39,5.48C-0.15,4.9,-0.13,3.98,0.45,3.43C0.45,3.43,3.64,0.39,3.64,0.39C4.2,-0.14,5.07,-0.13,5.62,0.41C5.62,0.41,8.65,3.35,8.65,3.35C8.71,3.41,8.77,3.48,8.82,3.55C8.82,3.55,9.44,4.42,9.44,4.42C9.8,4.92,9.81,5.6,9.46,6.11C9.46,6.11,8.18,7.93,8.18,7.93C8.07,8.08,7.95,8.21,7.79,8.31C7.79,8.31,5.82,9.59,5.82,9.59C5.24,9.97,4.47,9.87,4,9.36C4,9.36,0.39,5.48,0.39,5.48C0.39,5.48,0.39,5.48,0.39,5.48Z" fill="#fcbf28" /></g></g></g></g></g><g id="i1"><g transform="translate(133.25,53.05)"><animateTransform repeatCount="indefinite" type="translate" attributeName="transform" dur="5s" begin="0s" calcMode="spline" values="133.25 53.05; 140.166 59.373; 137.763 70.577; 145.038 79.326; 131.941 98.671; 145.795 117.895; 139.788 132.63; 139.788 132.63" keyTimes="0; 0.196666; 0.403333; 0.596667; 0.796667; 0.896667; 0.976667; 1" keySplines="0 0 1 1; 0 0 1 1; 0 0 1 1; 0 0 1 1; 0 0 1 1; 0 0 1 1; 0 0 1 1" fill="freeze" /><g transform="rotate(0)"><animateTransform repeatCount="indefinite" type="rotate" attributeName="transform" dur="5s" begin="0s" calcMode="spline" values="0; 9; 28; 18; 6; 6" keyTimes="0; 0.196666; 0.596667; 0.796667; 0.976667; 1" keySplines="0 0 1 1; 0 0 1 1; 0 0 1 1; 0 0 1 1; 0 0 1 1" fill="freeze" /><g transform="scale(1,1)"><animateTransform repeatCount="indefinite" type="scale" attributeName="transform" dur="5s" begin="0s" calcMode="spline" values="1 1; 1 0.755; 1 0.514; 0.876 0.44; 0.876 0.44" keyTimes="0; 0.196667; 0.403333; 0.596667; 1" keySplines="0 0 1 1; 0 0 1 1; 0 0 1 1; 0 0 1 1" fill="freeze" /><g transform="translate(-4.86,-4.91)"><path d="M0.39,5.48C-0.15,4.9,-0.13,3.98,0.45,3.43C0.45,3.43,3.64,0.39,3.64,0.39C4.2,-0.14,5.07,-0.13,5.62,0.41C5.62,0.41,8.65,3.35,8.65,3.35C8.71,3.41,8.77,3.48,8.82,3.55C8.82,3.55,9.44,4.42,9.44,4.42C9.8,4.92,9.81,5.6,9.46,6.11C9.46,6.11,8.18,7.93,8.18,7.93C8.07,8.08,7.95,8.21,7.79,8.31C7.79,8.31,5.82,9.59,5.82,9.59C5.24,9.97,4.47,9.87,4,9.36C4,9.36,0.39,5.48,0.39,5.48C0.39,5.48,0.39,5.48,0.39,5.48Z" fill="#fcbf28" /></g></g></g></g></g><g visibility="hidden" id="i0"><animate repeatCount="indefinite" begin="0s" calcMode="discrete" dur="5s" values="hidden; visible; visible" keyTimes="0; 0.327; 1" attributeName="visibility" /><g transform="translate(115.532,13.995)"><animateTransform repeatCount="indefinite" type="translate" attributeName="transform" dur="5s" begin="0s" calcMode="spline" values="115.532 13.995; 115.532 13.995; 141.864 39.676; 126.748 53.927; 126.748 53.927" keyTimes="0; 0.343333; 0.513333; 0.696667; 1" keySplines="0 0 1 1; 0 0 1 1; 0 0 1 1; 0 0 1 1" fill="freeze" /><g transform="rotate(45.23)"><animateTransform repeatCount="indefinite" type="rotate" attributeName="transform" dur="5s" begin="0s" calcMode="spline" values="45.23; 45.23; 18; 46; 46" keyTimes="0; 0.343333; 0.513333; 0.696667; 1" keySplines="0 0 1 1; 0 0 1 1; 0 0 1 1; 0 0 1 1" fill="freeze" /><g transform="scale(1.446,1.116) translate(-5.22,-5.42)"><path d="M4.62,0.31C4.82,0.02,5.18,-0.08,5.5,0.06C5.5,0.06,10.01,2.06,10.01,2.06C10.39,2.23,10.55,2.68,10.37,3.05C10.37,3.05,8.91,5.99,8.91,5.99C8.91,5.99,6.01,10.51,6.01,10.51C5.8,10.84,5.37,10.95,5.04,10.75C5.04,10.75,0.35,7.96,0.35,7.96C-0.01,7.75,-0.11,7.28,0.13,6.93C0.13,6.93,4.62,0.31,4.62,0.31C4.62,0.31,4.62,0.31,4.62,0.31Z" fill="#58b6f4" /></g></g></g></g><g id="i1"><g transform="translate(123.75,19.42)"><animateTransform repeatCount="indefinite" type="translate" attributeName="transform" dur="5s" begin="0s" calcMode="spline" values="123.75 19.42; 123.75 19.42; 126.232 38.606; 137.558 56.303; 128.71 76.477; 141.097 86.388; 128.356 102.568; 136.142 120.973; 126.586 128.051; 135.324 131.807; 135.324 131.807" keyTimes="0; 0.03; 0.136666; 0.253333; 0.35; 0.48; 0.553333; 0.636667; 0.746666; 0.873333; 1" keySplines="0 0 1 1; 0 0 1 1; 0 0 1 1; 0 0 1 1; 0 0 1 1; 0 0 1 1; 0 0 1 1; 0 0 1 1; 0 0 1 1; 0 0 1 1" fill="freeze" /><g transform="rotate(0)"><animateTransform repeatCount="indefinite" type="rotate" attributeName="transform" dur="5s" begin="0s" calcMode="spline" values="0; 0; 13; 19; 47; 41; 5; 5" keyTimes="0; 0.03; 0.136667; 0.253333; 0.35; 0.553334; 0.746667; 1" keySplines="0 0 1 1; 0 0 1 1; 0 0 1 1; 0 0 1 1; 0 0 1 1; 0 0 1 1; 0 0 1 1" fill="freeze" /><g transform="scale(1,1)"><animateTransform repeatCount="indefinite" type="scale" attributeName="transform" dur="5s" begin="0s" calcMode="spline" values="1 1; 1 1; 1.165 1.037; 1.38 1.138; 1.811 0.993; 1.811 0.398; 1.811 0.398" keyTimes="0; 0.03; 0.136666; 0.35; 0.746666; 0.873333; 1" keySplines="0 0 1 1; 0 0 1 1; 0 0 1 1; 0 0 1 1; 0 0 1 1; 0 0 1 1" fill="freeze" /><g transform="translate(-5.22,-5.42)"><path d="M4.62,0.31C4.82,0.02,5.18,-0.08,5.5,0.06C5.5,0.06,10.01,2.06,10.01,2.06C10.39,2.23,10.55,2.68,10.37,3.05C10.37,3.05,8.91,5.99,8.91,5.99C8.91,5.99,6.01,10.51,6.01,10.51C5.8,10.84,5.37,10.95,5.04,10.75C5.04,10.75,0.35,7.96,0.35,7.96C-0.01,7.75,-0.11,7.28,0.13,6.93C0.13,6.93,4.62,0.31,4.62,0.31C4.62,0.31,4.62,0.31,4.62,0.31Z" fill="#58b6f4" /></g></g></g></g></g><g id="i0"><g transform="translate(142.488,33.529)"><animateTransform repeatCount="indefinite" type="translate" attributeName="transform" dur="5s" begin="0s" calcMode="spline" values="142.488 33.529; 142.488 33.529; 132.233 36.326; 140.202 50.621; 134.608 83.599; 125.95 103.595; 142.792 111.017; 142.792 111.017" keyTimes="0; 0.003333; 0.243333; 0.383333; 0.576667; 0.79; 0.943333; 1" keySplines="0 0 1 1; 0 0 1 1; 0 0 1 1; 0 0 1 1; 0 0 1 1; 0 0 1 1; 0 0 1 1" fill="freeze" /><g transform="rotate(0)"><animateTransform repeatCount="indefinite" type="rotate" attributeName="transform" dur="5s" begin="0s" calcMode="spline" values="0; 0; 31; 36; 12; 12" keyTimes="0; 0.003333; 0.383333; 0.576667; 0.79; 1" keySplines="0 0 1 1; 0 0 1 1; 0 0 1 1; 0 0 1 1; 0 0 1 1" fill="freeze" /><g transform="scale(1.536,1.229)"><animateTransform repeatCount="indefinite" type="scale" attributeName="transform" dur="5s" begin="0s" calcMode="spline" values="1.536 1.229; 1.536 1.229; 1.362 1.062; 1.362 0.917; 1.362 0.673; 1.362 0.673" keyTimes="0; 0.003333; 0.383333; 0.576667; 0.79; 1" keySplines="0 0 1 1; 0 0 1 1; 0 0 1 1; 0 0 1 1; 0 0 1 1" fill="freeze" /><g transform="translate(-5.22,-5.42)"><path d="M4.62,0.31C4.82,0.02,5.18,-0.08,5.5,0.06C5.5,0.06,10.01,2.06,10.01,2.06C10.39,2.23,10.55,2.68,10.37,3.05C10.37,3.05,8.91,5.99,8.91,5.99C8.91,5.99,6.01,10.51,6.01,10.51C5.8,10.84,5.37,10.95,5.04,10.75C5.04,10.75,0.35,7.96,0.35,7.96C-0.01,7.75,-0.11,7.28,0.13,6.93C0.13,6.93,4.62,0.31,4.62,0.31C4.62,0.31,4.62,0.31,4.62,0.31Z" fill="#f56059" /></g></g></g></g></g><g id="i0"><g transform="translate(81.12,88.04)"><animateTransform repeatCount="indefinite" type="translate" attributeName="transform" dur="5s" begin="0s" calcMode="spline" values="81.12 88.04; 81.12 88.04; 81.12 76.04; 81.12 88.04; 81.12 76.04; 83.389 88.258; 83.389 88.258" keyTimes="0; 0.2; 0.4; 0.6; 0.746667; 0.896667; 1" keySplines="0.33 1 0.68 1; 0.33 1 0.68 1; 0.33 1 0.68 1; 0 0 1 1; 0 0 1 1; 0 0 1 1" fill="freeze" /><g transform="translate(-36.62,-11.05)"><path d="M0,0C9.34,17.07,41.75,38.86,73.24,1.82C62.23,14.77,32.17,32.53,0,0C0,0,0,0,0,0Z" fill="#f28f32" /></g></g></g></svg>