<svg fill="none" height="100%" width="100%" viewBox="0 0 1000 1000" xmlns:xlink="http://www.w3.org/1999/xlink" xmlns="http://www.w3.org/2000/svg"><g id="i0"><g transform="translate(768.5,190.5)"><animateTransform repeatCount="indefinite" type="translate" attributeName="transform" dur="5s" begin="0s" calcMode="spline" values="768.5 190.5; 768.5 226.5; 768.5 190.5; 768.5 190.5" keyTimes="0; 0.5; 0.996667; 1" keySplines="0.333 0 0.667 1; 0.333 0 0.667 1; 0 0 1 1" fill="freeze" /><g transform="scale(0.7,0.7) translate(0,0)"><g id="i1"><path stroke-linejoin="round" stroke-width="5" stroke="#304ee5" fill="#ffffff" d="M3.873,-3.726C3.873,-3.726,13.677,-1.913,13.677,-1.913C13.688,-1.812,7.038,3.562,7.038,3.562C6.441,3.996,9.577,13.049,8.241,12.079C8.241,12.079,0.625,8.687,0.436,8.607C0.436,8.607,-7.554,12.016,-7.554,12.016C-8.89,12.986,-5.441,3.996,-6.038,3.562C-6.038,3.562,-13,-3.125,-13.026,-3.163C-13.026,-3.163,-3.936,-3.601,-3.936,-3.601C-3.198,-3.601,-0.308,-12.633,-0.308,-12.633C1.375,-9.563,3.135,-3.726,3.873,-3.726Z" /></g></g></g></g><g id="i0"><g transform="translate(768.5,190.5)"><animateTransform repeatCount="indefinite" type="translate" attributeName="transform" dur="5s" begin="0s" calcMode="spline" values="768.5 190.5; 768.5 226.5; 768.5 190.5; 768.5 190.5" keyTimes="0; 0.5; 0.996667; 1" keySplines="0.333 0 0.667 1; 0.333 0 0.667 1; 0 0 1 1" fill="freeze" /><g transform="scale(0.7,0.7) translate(0,0)"><g transform="matrix(1,0,0,1,-777.143,617.143)" id="i2"><g id="i1"><path stroke-linejoin="round" stroke-width="5" stroke="#304ee5" fill="#ffffff" d="M3.873,-3.726C3.873,-3.726,13.677,-1.913,13.677,-1.913C13.688,-1.812,7.038,3.562,7.038,3.562C6.441,3.996,9.577,13.049,8.241,12.079C8.241,12.079,0.625,8.687,0.436,8.607C0.436,8.607,-7.554,12.016,-7.554,12.016C-8.89,12.986,-5.441,3.996,-6.038,3.562C-6.038,3.562,-13,-3.125,-13.026,-3.163C-13.026,-3.163,-3.936,-3.601,-3.936,-3.601C-3.198,-3.601,-0.308,-12.633,-0.308,-12.633C1.375,-9.563,3.135,-3.726,3.873,-3.726Z" /></g></g></g></g></g><g id="i0"><g transform="translate(768.5,190.5)"><animateTransform repeatCount="indefinite" type="translate" attributeName="transform" dur="5s" begin="0s" calcMode="spline" values="768.5 190.5; 768.5 226.5; 768.5 190.5; 768.5 190.5" keyTimes="0; 0.5; 0.996667; 1" keySplines="0.333 0 0.667 1; 0.333 0 0.667 1; 0 0 1 1" fill="freeze" /><g transform="scale(0.7,0.7) translate(0,0)"><g transform="matrix(1.429,0,0,1.429,-62.857,868.571)" id="i3"><g id="i1"><path stroke-linejoin="round" stroke-width="5" stroke="#304ee5" fill="#ffffff" d="M3.873,-3.726C3.873,-3.726,13.677,-1.913,13.677,-1.913C13.688,-1.812,7.038,3.562,7.038,3.562C6.441,3.996,9.577,13.049,8.241,12.079C8.241,12.079,0.625,8.687,0.436,8.607C0.436,8.607,-7.554,12.016,-7.554,12.016C-8.89,12.986,-5.441,3.996,-6.038,3.562C-6.038,3.562,-13,-3.125,-13.026,-3.163C-13.026,-3.163,-3.936,-3.601,-3.936,-3.601C-3.198,-3.601,-0.308,-12.633,-0.308,-12.633C1.375,-9.563,3.135,-3.726,3.873,-3.726Z" /></g></g></g></g></g><g id="i0"><g transform="translate(768.5,190.5)"><animateTransform repeatCount="indefinite" type="translate" attributeName="transform" dur="5s" begin="0s" calcMode="spline" values="768.5 190.5; 768.5 226.5; 768.5 190.5; 768.5 190.5" keyTimes="0; 0.5; 0.996667; 1" keySplines="0.333 0 0.667 1; 0.333 0 0.667 1; 0 0 1 1" fill="freeze" /><g transform="scale(0.7,0.7) translate(0,0)"><g transform="matrix(0.714,0,0,0.714,-902.857,1028.571)" id="i4"><g id="i1"><path stroke-linejoin="round" stroke-width="5" stroke="#304ee5" fill="#ffffff" d="M3.873,-3.726C3.873,-3.726,13.677,-1.913,13.677,-1.913C13.688,-1.812,7.038,3.562,7.038,3.562C6.441,3.996,9.577,13.049,8.241,12.079C8.241,12.079,0.625,8.687,0.436,8.607C0.436,8.607,-7.554,12.016,-7.554,12.016C-8.89,12.986,-5.441,3.996,-6.038,3.562C-6.038,3.562,-13,-3.125,-13.026,-3.163C-13.026,-3.163,-3.936,-3.601,-3.936,-3.601C-3.198,-3.601,-0.308,-12.633,-0.308,-12.633C1.375,-9.563,3.135,-3.726,3.873,-3.726Z" /></g></g></g></g></g><g id="i0"><g transform="translate(768.5,190.5)"><animateTransform repeatCount="indefinite" type="translate" attributeName="transform" dur="5s" begin="0s" calcMode="spline" values="768.5 190.5; 768.5 226.5; 768.5 190.5; 768.5 190.5" keyTimes="0; 0.5; 0.996667; 1" keySplines="0.333 0 0.667 1; 0.333 0 0.667 1; 0 0 1 1" fill="freeze" /><g transform="scale(0.7,0.7) translate(0,0)"><g transform="matrix(1.429,0,0,1.429,-594.286,520)" id="i5"><g id="i1"><path stroke-linejoin="round" stroke-width="5" stroke="#304ee5" fill="#ffffff" d="M3.873,-3.726C3.873,-3.726,13.677,-1.913,13.677,-1.913C13.688,-1.812,7.038,3.562,7.038,3.562C6.441,3.996,9.577,13.049,8.241,12.079C8.241,12.079,0.625,8.687,0.436,8.607C0.436,8.607,-7.554,12.016,-7.554,12.016C-8.89,12.986,-5.441,3.996,-6.038,3.562C-6.038,3.562,-13,-3.125,-13.026,-3.163C-13.026,-3.163,-3.936,-3.601,-3.936,-3.601C-3.198,-3.601,-0.308,-12.633,-0.308,-12.633C1.375,-9.563,3.135,-3.726,3.873,-3.726Z" /></g></g></g></g></g><g id="i0"><g transform="translate(768.5,190.5)"><animateTransform repeatCount="indefinite" type="translate" attributeName="transform" dur="5s" begin="0s" calcMode="spline" values="768.5 190.5; 768.5 226.5; 768.5 190.5; 768.5 190.5" keyTimes="0; 0.5; 0.996667; 1" keySplines="0.333 0 0.667 1; 0.333 0 0.667 1; 0 0 1 1" fill="freeze" /><g transform="scale(0.7,0.7) translate(0,0)"><g transform="matrix(0.714,0,0,0.714,-737.143,-91.429)" id="i6"><g id="i1"><path stroke-linejoin="round" stroke-width="5" stroke="#304ee5" fill="#ffffff" d="M3.873,-3.726C3.873,-3.726,13.677,-1.913,13.677,-1.913C13.688,-1.812,7.038,3.562,7.038,3.562C6.441,3.996,9.577,13.049,8.241,12.079C8.241,12.079,0.625,8.687,0.436,8.607C0.436,8.607,-7.554,12.016,-7.554,12.016C-8.89,12.986,-5.441,3.996,-6.038,3.562C-6.038,3.562,-13,-3.125,-13.026,-3.163C-13.026,-3.163,-3.936,-3.601,-3.936,-3.601C-3.198,-3.601,-0.308,-12.633,-0.308,-12.633C1.375,-9.563,3.135,-3.726,3.873,-3.726Z" /></g></g></g></g></g><g id="i0"><g transform="translate(768.5,190.5)"><animateTransform repeatCount="indefinite" type="translate" attributeName="transform" dur="5s" begin="0s" calcMode="spline" values="768.5 190.5; 768.5 226.5; 768.5 190.5; 768.5 190.5" keyTimes="0; 0.5; 0.996667; 1" keySplines="0.333 0 0.667 1; 0.333 0 0.667 1; 0 0 1 1" fill="freeze" /><g transform="scale(0.7,0.7) translate(0,0)"><g transform="matrix(1,0,0,1,-51.429,348.571)" id="i7"><g id="i1"><path stroke-linejoin="round" stroke-width="5" stroke="#304ee5" fill="#ffffff" d="M3.873,-3.726C3.873,-3.726,13.677,-1.913,13.677,-1.913C13.688,-1.812,7.038,3.562,7.038,3.562C6.441,3.996,9.577,13.049,8.241,12.079C8.241,12.079,0.625,8.687,0.436,8.607C0.436,8.607,-7.554,12.016,-7.554,12.016C-8.89,12.986,-5.441,3.996,-6.038,3.562C-6.038,3.562,-13,-3.125,-13.026,-3.163C-13.026,-3.163,-3.936,-3.601,-3.936,-3.601C-3.198,-3.601,-0.308,-12.633,-0.308,-12.633C1.375,-9.563,3.135,-3.726,3.873,-3.726Z" /></g></g></g></g></g><g id="i0"><g transform="translate(768.5,190.5)"><animateTransform repeatCount="indefinite" type="translate" attributeName="transform" dur="5s" begin="0s" calcMode="spline" values="768.5 190.5; 768.5 226.5; 768.5 190.5; 768.5 190.5" keyTimes="0; 0.5; 0.996667; 1" keySplines="0.333 0 0.667 1; 0.333 0 0.667 1; 0 0 1 1" fill="freeze" /><g transform="scale(0.7,0.7) translate(0,0)"><g transform="matrix(1.143,0,0,1.143,225.714,-60)" id="i8"><g id="i1"><path stroke-linejoin="round" stroke-width="5" stroke="#304ee5" fill="#ffffff" d="M3.873,-3.726C3.873,-3.726,13.677,-1.913,13.677,-1.913C13.688,-1.812,7.038,3.562,7.038,3.562C6.441,3.996,9.577,13.049,8.241,12.079C8.241,12.079,0.625,8.687,0.436,8.607C0.436,8.607,-7.554,12.016,-7.554,12.016C-8.89,12.986,-5.441,3.996,-6.038,3.562C-6.038,3.562,-13,-3.125,-13.026,-3.163C-13.026,-3.163,-3.936,-3.601,-3.936,-3.601C-3.198,-3.601,-0.308,-12.633,-0.308,-12.633C1.375,-9.563,3.135,-3.726,3.873,-3.726Z" /></g></g></g></g></g><g id="i9"><g transform="translate(504.762,701.25)"><animateTransform repeatCount="indefinite" type="translate" attributeName="transform" dur="5s" begin="0s" calcMode="spline" values="504.762 701.25; 504.762 599.25; 504.762 701.25; 504.762 701.25" keyTimes="0; 0.5; 0.996667; 1" keySplines="0.333 0 0.667 1; 0.333 0 0.667 1; 0 0 1 1" fill="freeze" /><g transform="rotate(0)"><animateTransform repeatCount="indefinite" type="rotate" attributeName="transform" dur="5s" begin="0s" calcMode="spline" values="0; 4.468; 0; 0" keyTimes="0; 0.5; 0.996667; 1" keySplines="0.333 0 0.667 1; 0.333 0 0.667 1; 0 0 1 1" fill="freeze" /><g transform="scale(1,1) translate(-4.762,-109.25)"><g id="i10"><g transform="translate(47.788,114.249)"><g transform="rotate(19.732)"><animateTransform repeatCount="indefinite" type="rotate" attributeName="transform" dur="5s" begin="0s" calcMode="spline" values="19.732; -4.717; 19.732; 19.732" keyTimes="0; 0.5; 0.996667; 1" keySplines="0.333 0 0.667 1; 0.333 0 0.667 1; 0 0 1 1" fill="freeze" /><g transform="scale(1,1) translate(-47.788,-114.249)"><g id="i11"><path stroke-miterlimit="10" stroke-linecap="round" stroke-width="40" stroke="#304ee5" d="M47.844,115.605C47.844,115.605,61.328,149.221,61.722,181.542C62.116,213.863,49.755,235.893,49.755,235.893" /></g><g id="i12"><path stroke-width="2" stroke="#304ee5" d="M77,143C77,143,86.5,181.5,78,217" /></g></g></g></g></g></g></g></g></g><g id="i9"><g transform="translate(504.762,701.25)"><animateTransform repeatCount="indefinite" type="translate" attributeName="transform" dur="5s" begin="0s" calcMode="spline" values="504.762 701.25; 504.762 599.25; 504.762 701.25; 504.762 701.25" keyTimes="0; 0.5; 0.996667; 1" keySplines="0.333 0 0.667 1; 0.333 0 0.667 1; 0 0 1 1" fill="freeze" /><g transform="rotate(0)"><animateTransform repeatCount="indefinite" type="rotate" attributeName="transform" dur="5s" begin="0s" calcMode="spline" values="0; 4.468; 0; 0" keyTimes="0; 0.5; 0.996667; 1" keySplines="0.333 0 0.667 1; 0.333 0 0.667 1; 0 0 1 1" fill="freeze" /><g transform="scale(1,1) translate(-4.762,-109.25)"><g id="i13"><g transform="translate(73.286,-13.991)"><g transform="rotate(0)"><animateTransform repeatCount="indefinite" type="rotate" attributeName="transform" dur="5s" begin="0s" calcMode="spline" values="0; -13.413; 0; 0" keyTimes="0; 0.5; 0.996667; 1" keySplines="0.333 0 0.667 1; 0.333 0 0.667 1; 0 0 1 1" fill="freeze" /><g transform="scale(1,1) translate(-73.286,13.991)"><g transform="matrix(0.991,-0.137,0.137,0.991,2.191,10.83)" id="i14"><g id="i1"><path stroke-miterlimit="10" stroke-linecap="round" stroke-width="40" stroke="#304ee5" d="M79.77,-10.939C79.77,-10.939,98.121,18.826,103.419,49.886C108.717,80.946,99.924,104.57,99.924,104.57" /></g><g id="i12"><path stroke-width="2" stroke="#304ee5" d="M110.5,5.5C110.5,5.5,127,41,125,80M80.125,103C80.125,103,79.25,122.75,96.875,124.25C114.5,125.75,118.25,111,118.25,111" /></g></g></g></g></g></g></g></g></g></g><g id="i9"><g transform="translate(504.762,701.25)"><animateTransform repeatCount="indefinite" type="translate" attributeName="transform" dur="5s" begin="0s" calcMode="spline" values="504.762 701.25; 504.762 599.25; 504.762 701.25; 504.762 701.25" keyTimes="0; 0.5; 0.996667; 1" keySplines="0.333 0 0.667 1; 0.333 0 0.667 1; 0 0 1 1" fill="freeze" /><g transform="rotate(0)"><animateTransform repeatCount="indefinite" type="rotate" attributeName="transform" dur="5s" begin="0s" calcMode="spline" values="0; 4.468; 0; 0" keyTimes="0; 0.5; 0.996667; 1" keySplines="0.333 0 0.667 1; 0.333 0 0.667 1; 0 0 1 1" fill="freeze" /><g transform="scale(1,1) translate(-4.762,-109.25)"><g id="i13"><g transform="translate(73.286,-13.991)"><g transform="rotate(0)"><animateTransform repeatCount="indefinite" type="rotate" attributeName="transform" dur="5s" begin="0s" calcMode="spline" values="0; -13.413; 0; 0" keyTimes="0; 0.5; 0.996667; 1" keySplines="0.333 0 0.667 1; 0.333 0 0.667 1; 0 0 1 1" fill="freeze" /><g transform="scale(1,1) translate(-73.286,13.991)"><g id="i1" transform="matrix(1,0,0,1,73.286,-13.991)"><ellipse ry="23.5" rx="24.268" cy="0" cx="0" stroke-miterlimit="10" stroke-width="5" stroke="#304ee5" fill="#ffffff" /></g></g></g></g></g></g></g></g></g><g id="i9"><g transform="translate(504.762,701.25)"><animateTransform repeatCount="indefinite" type="translate" attributeName="transform" dur="5s" begin="0s" calcMode="spline" values="504.762 701.25; 504.762 599.25; 504.762 701.25; 504.762 701.25" keyTimes="0; 0.5; 0.996667; 1" keySplines="0.333 0 0.667 1; 0.333 0 0.667 1; 0 0 1 1" fill="freeze" /><g transform="rotate(0)"><animateTransform repeatCount="indefinite" type="rotate" attributeName="transform" dur="5s" begin="0s" calcMode="spline" values="0; 4.468; 0; 0" keyTimes="0; 0.5; 0.996667; 1" keySplines="0.333 0 0.667 1; 0.333 0 0.667 1; 0 0 1 1" fill="freeze" /><g transform="scale(1,1) translate(-4.762,-109.25)"><g id="i15"><path fill="#304ee5" d="M93.556,25.993C93.556,-38.076,53.709,-47,4.556,-47C-44.597,-47,-84.444,-38.076,-84.444,25.993C-84.444,90.062,-44.597,142,4.556,142C53.709,142,93.556,90.062,93.556,25.993Z" /></g><g id="i16"><path stroke-miterlimit="10" stroke-width="5" stroke="#304ee5" fill="#304ee5" d="M29.728,16.979C33.184,3.682,35.173,-11.085,32.477,-23.897C46.565,-27.005,56.056,-32.826,56.056,-39.5C56.056,-49.441,35.013,-57.5,9.056,-57.5C-16.901,-57.5,-37.944,-49.441,-37.944,-39.5C-37.944,-29.559,-16.901,-21.5,9.056,-21.5C9.634,-21.5,10.207,-21.509,10.78,-21.517C14.028,-13.953,16.842,0.817,19.405,16.475C19.793,18.845,21.73,20.658,24.121,20.884C24.121,20.884,24.121,20.884,24.121,20.884C26.693,21.127,29.078,19.48,29.728,16.979Z" /></g><g id="i12" transform="matrix(1,0,0,1,0.5,0)"><path stroke-miterlimit="10" stroke-width="2" stroke="#304ee5" d="M73.556,-30C95.056,-17.5,119.296,87.818,33.296,135.818" /></g></g></g></g></g><g id="i9"><g transform="translate(504.762,701.25)"><animateTransform repeatCount="indefinite" type="translate" attributeName="transform" dur="5s" begin="0s" calcMode="spline" values="504.762 701.25; 504.762 599.25; 504.762 701.25; 504.762 701.25" keyTimes="0; 0.5; 0.996667; 1" keySplines="0.333 0 0.667 1; 0.333 0 0.667 1; 0 0 1 1" fill="freeze" /><g transform="rotate(0)"><animateTransform repeatCount="indefinite" type="rotate" attributeName="transform" dur="5s" begin="0s" calcMode="spline" values="0; 4.468; 0; 0" keyTimes="0; 0.5; 0.996667; 1" keySplines="0.333 0 0.667 1; 0.333 0 0.667 1; 0 0 1 1" fill="freeze" /><g transform="scale(1,1) translate(-4.762,-109.25)"><g id="i17"><g transform="translate(-15.194,-36)"><g transform="rotate(-7.447)"><animateTransform repeatCount="indefinite" type="rotate" attributeName="transform" dur="5s" begin="0s" calcMode="spline" values="-7.447; 6.522; -15.12; 6.522; -15.12; 6.522; -7.447; -7.447" keyTimes="0; 0.153333; 0.326666; 0.5; 0.673333; 0.833333; 0.996667; 1" keySplines="0.333 0 0.667 1; 0.333 0 0.667 1; 0.333 0 0.667 1; 0.333 0 0.667 1; 0.333 0 0.667 1; 0.333 0 0.667 1; 0 0 1 1" fill="freeze" /><g transform="scale(1,1) translate(15.194,36)"><g id="i18" transform="matrix(1,0,0,1,10.556,-168)"><ellipse ry="136" rx="136" cy="0" cx="0" fill="#304ee5" /></g><g id="i19" transform="matrix(1,0,0,1,43.056,-168.501)"><ellipse ry="108.5" rx="110.796" cy="0" cx="0" stroke-miterlimit="10" stroke-width="5" stroke="#304ee5" fill="#304ee5" /></g><g id="i20" transform="matrix(1,0,0,1,58.556,-168)"><ellipse ry="94.5" rx="96.5" cy="0" cx="0" fill="#304ee5" /></g><g id="i21" transform="matrix(1,0,0,1,10.556,-168)"><path stroke-width="2" stroke="#304ee5" d="M0,136C-67.666,136,-123.79,86.583,-134.251,21.87C-135.402,14.75,-136,7.445,-136,0C-136,-75.111,-75.111,-136,0,-136" /></g><g id="i12"><path fill="#304ee5" d="M-12.137,-168.5C-12.137,-195.838,-0.935,-218,-3.963,-218C-6.991,-218,-23.103,-195.838,-23.103,-168.5C-23.103,-141.162,-6.991,-119,-3.963,-119C-0.935,-119,-12.137,-141.162,-12.137,-168.5Z" /></g></g></g></g></g></g></g></g></g><g id="i9"><g transform="translate(504.762,701.25)"><animateTransform repeatCount="indefinite" type="translate" attributeName="transform" dur="5s" begin="0s" calcMode="spline" values="504.762 701.25; 504.762 599.25; 504.762 701.25; 504.762 701.25" keyTimes="0; 0.5; 0.996667; 1" keySplines="0.333 0 0.667 1; 0.333 0 0.667 1; 0 0 1 1" fill="freeze" /><g transform="rotate(0)"><animateTransform repeatCount="indefinite" type="rotate" attributeName="transform" dur="5s" begin="0s" calcMode="spline" values="0; 4.468; 0; 0" keyTimes="0; 0.5; 0.996667; 1" keySplines="0.333 0 0.667 1; 0.333 0 0.667 1; 0 0 1 1" fill="freeze" /><g transform="scale(1,1) translate(-4.762,-109.25)"><g id="i22"><g transform="translate(-25.712,123.249)"><g transform="rotate(29.813)"><animateTransform repeatCount="indefinite" type="rotate" attributeName="transform" dur="5s" begin="0s" calcMode="spline" values="29.813; 24.475; 29.813; 29.813" keyTimes="0; 0.5; 0.996667; 1" keySplines="0.333 0 0.667 1; 0.333 0 0.667 1; 0 0 1 1" fill="freeze" /><g transform="scale(1,1) translate(-47.788,-114.249)"><g id="i11"><path stroke-miterlimit="10" stroke-linecap="round" stroke-width="40" stroke="#304ee5" d="M47.844,115.605C47.844,115.605,61.328,149.221,61.722,181.542C62.116,213.863,49.755,235.893,49.755,235.893" /></g><g id="i12"><path stroke-linecap="round" stroke-width="2" stroke="#304ee5" d="M77,143C77,143,86.5,181.5,78,217" /></g></g></g></g></g></g></g></g></g><g id="i9"><g transform="translate(504.762,701.25)"><animateTransform repeatCount="indefinite" type="translate" attributeName="transform" dur="5s" begin="0s" calcMode="spline" values="504.762 701.25; 504.762 599.25; 504.762 701.25; 504.762 701.25" keyTimes="0; 0.5; 0.996667; 1" keySplines="0.333 0 0.667 1; 0.333 0 0.667 1; 0 0 1 1" fill="freeze" /><g transform="rotate(0)"><animateTransform repeatCount="indefinite" type="rotate" attributeName="transform" dur="5s" begin="0s" calcMode="spline" values="0; 4.468; 0; 0" keyTimes="0; 0.5; 0.996667; 1" keySplines="0.333 0 0.667 1; 0.333 0 0.667 1; 0 0 1 1" fill="freeze" /><g transform="scale(1,1) translate(-4.762,-109.25)"><g id="i23"><g transform="translate(-68.714,-13.991)"><g transform="rotate(0)"><animateTransform repeatCount="indefinite" type="rotate" attributeName="transform" dur="5s" begin="0s" calcMode="spline" values="0; 18.288; 0; 0" keyTimes="0; 0.5; 0.996667; 1" keySplines="0.333 0 0.667 1; 0.333 0 0.667 1; 0 0 1 1" fill="freeze" /><g transform="scale(1,1) translate(68.714,13.991)"><g id="i1" transform="matrix(1,0,0,1,-68.714,-13.991)"><ellipse ry="23.5" rx="23.5" cy="0" cx="0" stroke-miterlimit="10" stroke-width="5" stroke="#304ee5" fill="#ffffff" /></g></g></g></g></g></g></g></g></g><g id="i9"><g transform="translate(504.762,701.25)"><animateTransform repeatCount="indefinite" type="translate" attributeName="transform" dur="5s" begin="0s" calcMode="spline" values="504.762 701.25; 504.762 599.25; 504.762 701.25; 504.762 701.25" keyTimes="0; 0.5; 0.996667; 1" keySplines="0.333 0 0.667 1; 0.333 0 0.667 1; 0 0 1 1" fill="freeze" /><g transform="rotate(0)"><animateTransform repeatCount="indefinite" type="rotate" attributeName="transform" dur="5s" begin="0s" calcMode="spline" values="0; 4.468; 0; 0" keyTimes="0; 0.5; 0.996667; 1" keySplines="0.333 0 0.667 1; 0.333 0 0.667 1; 0 0 1 1" fill="freeze" /><g transform="scale(1,1) translate(-4.762,-109.25)"><g id="i23"><g transform="translate(-68.714,-13.991)"><g transform="rotate(0)"><animateTransform repeatCount="indefinite" type="rotate" attributeName="transform" dur="5s" begin="0s" calcMode="spline" values="0; 18.288; 0; 0" keyTimes="0; 0.5; 0.996667; 1" keySplines="0.333 0 0.667 1; 0.333 0 0.667 1; 0 0 1 1" fill="freeze" /><g transform="scale(1,1) translate(68.714,13.991)"><g transform="matrix(0.989,0.15,-0.15,0.989,-2.816,10.337)" id="i24"><g id="i25"><path stroke-miterlimit="10" stroke-linecap="round" stroke-width="40" stroke="#304ee5" d="M-72.994,-10.939C-72.994,-10.939,-92.452,23.505,-98.8,58.997C-105.148,94.489,-97.053,121.069,-97.053,121.069" /></g><g id="i21" transform="matrix(0.99,-0.139,0.139,0.99,-10.531,-9.696)"><path stroke-miterlimit="10" stroke-width="2" stroke="#304ee5" d="M-94.444,4.5C-94.444,4.5,-123.5,43,-125.006,93.563M-122.039,124.954C-122.039,124.954,-117.835,140.646,-97.784,136.447C-83.159,133.384,-84.515,114.202,-84.515,114.202" /></g><g id="i12"><path stroke-miterlimit="10" stroke-linecap="round" stroke-width="3" stroke="#304ee5" d="M-50.944,-8.5C-50.944,-8.5,-80,30,-81.506,80.563" /></g></g></g></g></g></g></g></g></g></g><g id="i9"><g transform="translate(504.762,701.25)"><animateTransform repeatCount="indefinite" type="translate" attributeName="transform" dur="5s" begin="0s" calcMode="spline" values="504.762 701.25; 504.762 599.25; 504.762 701.25; 504.762 701.25" keyTimes="0; 0.5; 0.996667; 1" keySplines="0.333 0 0.667 1; 0.333 0 0.667 1; 0 0 1 1" fill="freeze" /><g transform="rotate(0)"><animateTransform repeatCount="indefinite" type="rotate" attributeName="transform" dur="5s" begin="0s" calcMode="spline" values="0; 4.468; 0; 0" keyTimes="0; 0.5; 0.996667; 1" keySplines="0.333 0 0.667 1; 0.333 0 0.667 1; 0 0 1 1" fill="freeze" /><g transform="scale(1,1) translate(-4.762,-109.25)"><g id="i17"><g transform="translate(-15.194,-36)"><g transform="rotate(-7.447)"><animateTransform repeatCount="indefinite" type="rotate" attributeName="transform" dur="5s" begin="0s" calcMode="spline" values="-7.447; 6.522; -15.12; 6.522; -15.12; 6.522; -7.447; -7.447" keyTimes="0; 0.153333; 0.326666; 0.5; 0.673333; 0.833333; 0.996667; 1" keySplines="0.333 0 0.667 1; 0.333 0 0.667 1; 0.333 0 0.667 1; 0.333 0 0.667 1; 0.333 0 0.667 1; 0.333 0 0.667 1; 0 0 1 1" fill="freeze" /><g transform="scale(1,1) translate(15.194,36)"><g transform="matrix(1,0,0,1,0.75,0)" id="i26"><g id="i27" transform="matrix(1,0,0,1,-114.945,-165.508)"><path stroke-miterlimit="10" stroke-width="5" stroke="#304ee5" fill="#ffffff" d="M0,-60.594C21.26,-60.594,38.495,-33.465,38.495,0C38.495,33.465,21.26,60.594,0,60.594C-21.26,60.594,-38.495,33.465,-38.495,0C-38.495,-33.465,-21.26,-60.594,0,-60.594Z" /></g><g id="i28"><path fill="#304ee5" d="M144.726,-119.686C157.116,-125.786,166.107,-143.995,166.107,-165.508C166.107,-185.067,158.676,-201.892,148.015,-209.372C146.075,-210.733,155.722,-186.83,155.038,-163.36C154.385,-140.98,143.321,-118.994,144.726,-119.686ZM134.4,-236.115C123.466,-277.38,90.385,-331.954,-8.341,-328.98C-114.15,-325.793,-137.217,-247.329,-142.245,-212.357C-155.896,-207.589,-166.107,-188.431,-166.107,-165.508C-166.107,-138.998,-152.454,-117.506,-135.612,-117.506C-118.77,-117.506,-105.117,-138.998,-105.117,-165.508C-105.117,-184.524,-112.142,-200.954,-122.33,-208.726C-111.086,-245.561,-74.053,-327.831,30.639,-316.624C93.026,-309.946,119.73,-272.661,131.133,-240.516C131.133,-240.516,134.4,-236.115,134.4,-236.115Z" /></g><g id="i12"><path stroke-width="2" stroke="#304ee5" d="M-145.313,-210.875C-145.313,-210.875,-154.625,-206.813,-160.054,-193.523C-166.691,-177.276,-170.683,-149.512,-153.438,-126.563M147.198,-212.282C147.198,-212.282,166.886,-161.483,143.955,-117.967M-59.5,-319.5C-59.5,-319.5,-117,-306.25,-138,-233.75" /></g></g></g></g></g></g></g></g></g></g><g id="i9"><g transform="translate(504.762,701.25)"><animateTransform repeatCount="indefinite" type="translate" attributeName="transform" dur="5s" begin="0s" calcMode="spline" values="504.762 701.25; 504.762 599.25; 504.762 701.25; 504.762 701.25" keyTimes="0; 0.5; 0.996667; 1" keySplines="0.333 0 0.667 1; 0.333 0 0.667 1; 0 0 1 1" fill="freeze" /><g transform="rotate(0)"><animateTransform repeatCount="indefinite" type="rotate" attributeName="transform" dur="5s" begin="0s" calcMode="spline" values="0; 4.468; 0; 0" keyTimes="0; 0.5; 0.996667; 1" keySplines="0.333 0 0.667 1; 0.333 0 0.667 1; 0 0 1 1" fill="freeze" /><g transform="scale(1,1) translate(-4.762,-109.25)"><g visibility="visible" id="i29"><animate repeatCount="indefinite" begin="0s" calcMode="discrete" dur="5s" values="visible; hidden; hidden" keyTimes="0; 0.38; 1" attributeName="visibility" /><g transform="translate(-191.646,-175.011)"><animateTransform repeatCount="indefinite" type="translate" attributeName="transform" dur="5s" begin="0s" calcMode="spline" values="-191.646 -175.011; -288.646 -295.011; -288.646 -295.011" keyTimes="0; 0.38; 1" keySplines="0 0 1 1; 0 0 1 1" fill="freeze" /><g transform="scale(0,0)"><animateTransform repeatCount="indefinite" type="scale" attributeName="transform" dur="5s" begin="0s" calcMode="spline" values="0 0; 1.2 1.2; 1 1; 1 1; 1.2 1.2; 0 0; 0 0" keyTimes="0; 0.066667; 0.126667; 0.216666; 0.296667; 0.38; 1" keySplines="0 0 1 1; 0 0 1 1; 0 0 1 1; 0 0 1 1; 0 0 1 1; 0 0 1 1" fill="freeze" /><g transform="translate(201.146,119.011)"><g id="i1"><path fill="#304ee5" d="M-208,-159.25C-208,-159.25,-234.625,-154.5,-234.625,-154.5C-234.625,-154.5,-231.375,-143,-231.375,-143C-231.375,-143,-228.875,-148.125,-228.875,-148.125C-228.875,-148.125,-213.625,-150.5,-213.625,-150.5C-213.625,-150.5,-215.375,-116.5,-215.375,-116.5C-215.375,-116.5,-198.5,-109.75,-196,-116C-193.5,-122.25,-196.5,-128.125,-210.25,-123C-211.125,-123.25,-208,-159.25,-208,-159.25Z" /></g></g></g></g></g></g></g></g></g><g id="i9"><g transform="translate(504.762,701.25)"><animateTransform repeatCount="indefinite" type="translate" attributeName="transform" dur="5s" begin="0s" calcMode="spline" values="504.762 701.25; 504.762 599.25; 504.762 701.25; 504.762 701.25" keyTimes="0; 0.5; 0.996667; 1" keySplines="0.333 0 0.667 1; 0.333 0 0.667 1; 0 0 1 1" fill="freeze" /><g transform="rotate(0)"><animateTransform repeatCount="indefinite" type="rotate" attributeName="transform" dur="5s" begin="0s" calcMode="spline" values="0; 4.468; 0; 0" keyTimes="0; 0.5; 0.996667; 1" keySplines="0.333 0 0.667 1; 0.333 0 0.667 1; 0 0 1 1" fill="freeze" /><g transform="scale(1,1) translate(-4.762,-109.25)"><g visibility="hidden" id="i30"><animate repeatCount="indefinite" begin="0s" calcMode="discrete" dur="5s" values="hidden; visible; hidden; hidden" keyTimes="0; 0.34; 0.72; 1" attributeName="visibility" /><g transform="translate(-219.024,-144.948)"><animateTransform repeatCount="indefinite" type="translate" attributeName="transform" dur="5s" begin="0s" calcMode="spline" values="-219.024 -144.948; -219.024 -144.948; -346.059 -248.735; -346.059 -248.735" keyTimes="0; 0.34; 0.72; 1" keySplines="0 0 1 1; 0 0 1 1; 0 0 1 1" fill="freeze" /><g transform="rotate(-0.891)"><g transform="scale(0,0)"><animateTransform repeatCount="indefinite" type="scale" attributeName="transform" dur="5s" begin="0s" calcMode="spline" values="0 0; 0 0; 1.2 1.2; 1 1; 1 1; 1.2 1.2; 0 0; 0 0" keyTimes="0; 0.34; 0.406667; 0.466667; 0.556666; 0.636667; 0.72; 1" keySplines="0 0 1 1; 0 0 1 1; 0 0 1 1; 0 0 1 1; 0 0 1 1; 0 0 1 1; 0 0 1 1" fill="freeze" /><g transform="translate(201.146,119.011)"><g id="i1"><path fill="#304ee5" d="M-208,-159.25C-208,-159.25,-234.625,-154.5,-234.625,-154.5C-234.625,-154.5,-231.375,-143,-231.375,-143C-231.375,-143,-228.875,-148.125,-228.875,-148.125C-228.875,-148.125,-213.625,-150.5,-213.625,-150.5C-213.625,-150.5,-215.375,-116.5,-215.375,-116.5C-215.375,-116.5,-198.5,-109.75,-196,-116C-193.5,-122.25,-196.5,-128.125,-210.25,-123C-211.125,-123.25,-208,-159.25,-208,-159.25Z" /></g></g></g></g></g></g></g></g></g></g><g id="i9"><g transform="translate(504.762,701.25)"><animateTransform repeatCount="indefinite" type="translate" attributeName="transform" dur="5s" begin="0s" calcMode="spline" values="504.762 701.25; 504.762 599.25; 504.762 701.25; 504.762 701.25" keyTimes="0; 0.5; 0.996667; 1" keySplines="0.333 0 0.667 1; 0.333 0 0.667 1; 0 0 1 1" fill="freeze" /><g transform="rotate(0)"><animateTransform repeatCount="indefinite" type="rotate" attributeName="transform" dur="5s" begin="0s" calcMode="spline" values="0; 4.468; 0; 0" keyTimes="0; 0.5; 0.996667; 1" keySplines="0.333 0 0.667 1; 0.333 0 0.667 1; 0 0 1 1" fill="freeze" /><g transform="scale(1,1) translate(-4.762,-109.25)"><g visibility="hidden" id="i31"><animate repeatCount="indefinite" begin="0s" calcMode="discrete" dur="5s" values="hidden; visible; hidden; hidden" keyTimes="0; 0.553; 0.933; 1" attributeName="visibility" /><g transform="translate(-195.769,-151.338)"><animateTransform repeatCount="indefinite" type="translate" attributeName="transform" dur="5s" begin="0s" calcMode="spline" values="-195.769 -151.338; -195.769 -151.338; -294.642 -269.799; -294.642 -269.799" keyTimes="0; 0.553333; 0.933333; 1" keySplines="0 0 1 1; 0 0 1 1; 0 0 1 1" fill="freeze" /><g transform="rotate(-0.9)"><g transform="scale(0,0)"><animateTransform repeatCount="indefinite" type="scale" attributeName="transform" dur="5s" begin="0s" calcMode="spline" values="0 0; 0 0; 1.2 1.2; 1 1; 1 1; 1.2 1.2; 0 0; 0 0" keyTimes="0; 0.553333; 0.62; 0.68; 0.77; 0.85; 0.933333; 1" keySplines="0 0 1 1; 0 0 1 1; 0 0 1 1; 0 0 1 1; 0 0 1 1; 0 0 1 1; 0 0 1 1" fill="freeze" /><g transform="translate(201.146,119.011)"><g id="i1"><path fill="#304ee5" d="M-208,-159.25C-208,-159.25,-234.625,-154.5,-234.625,-154.5C-234.625,-154.5,-231.375,-143,-231.375,-143C-231.375,-143,-228.875,-148.125,-228.875,-148.125C-228.875,-148.125,-213.625,-150.5,-213.625,-150.5C-213.625,-150.5,-215.375,-116.5,-215.375,-116.5C-215.375,-116.5,-198.5,-109.75,-196,-116C-193.5,-122.25,-196.5,-128.125,-210.25,-123C-211.125,-123.25,-208,-159.25,-208,-159.25Z" /></g></g></g></g></g></g></g></g></g></g><g id="i9"><g transform="translate(504.762,701.25)"><animateTransform repeatCount="indefinite" type="translate" attributeName="transform" dur="5s" begin="0s" calcMode="spline" values="504.762 701.25; 504.762 599.25; 504.762 701.25; 504.762 701.25" keyTimes="0; 0.5; 0.996667; 1" keySplines="0.333 0 0.667 1; 0.333 0 0.667 1; 0 0 1 1" fill="freeze" /><g transform="rotate(0)"><animateTransform repeatCount="indefinite" type="rotate" attributeName="transform" dur="5s" begin="0s" calcMode="spline" values="0; 4.468; 0; 0" keyTimes="0; 0.5; 0.996667; 1" keySplines="0.333 0 0.667 1; 0.333 0 0.667 1; 0 0 1 1" fill="freeze" /><g transform="scale(1,1) translate(-4.762,-109.25)"><g visibility="hidden" id="i32"><animate repeatCount="indefinite" begin="0s" calcMode="discrete" dur="5s" values="hidden; visible; hidden; hidden" keyTimes="0; 0.167; 0.547; 1" attributeName="visibility" /><g transform="translate(193.596,-207.351)"><animateTransform repeatCount="indefinite" type="translate" attributeName="transform" dur="5s" begin="0s" calcMode="spline" values="193.596 -207.351; 193.596 -207.351; 292.451 -325.828; 292.451 -325.828" keyTimes="0; 0.166667; 0.546667; 1" keySplines="0 0 1 1; 0 0 1 1; 0 0 1 1" fill="freeze" /><g transform="rotate(0.891)"><g transform="scale(0,0)"><animateTransform repeatCount="indefinite" type="scale" attributeName="transform" dur="5s" begin="0s" calcMode="spline" values="0 0; 0 0; -1 1; -0.8 0.8; -0.8 0.8; -1 1; 0 0; 0 0" keyTimes="0; 0.166667; 0.233333; 0.293333; 0.383333; 0.463333; 0.546667; 1" keySplines="0 0 1 1; 0 0 1 1; 0 0 1 1; 0 0 1 1; 0 0 1 1; 0 0 1 1; 0 0 1 1" fill="freeze" /><g transform="translate(201.146,119.011)"><g id="i1"><path fill="#304ee5" d="M-208,-159.25C-208,-159.25,-234.625,-154.5,-234.625,-154.5C-234.625,-154.5,-231.375,-143,-231.375,-143C-231.375,-143,-228.875,-148.125,-228.875,-148.125C-228.875,-148.125,-213.625,-150.5,-213.625,-150.5C-213.625,-150.5,-215.375,-116.5,-215.375,-116.5C-215.375,-116.5,-198.5,-109.75,-196,-116C-193.5,-122.25,-196.5,-128.125,-210.25,-123C-211.125,-123.25,-208,-159.25,-208,-159.25Z" /></g></g></g></g></g></g></g></g></g></g><g id="i9"><g transform="translate(504.762,701.25)"><animateTransform repeatCount="indefinite" type="translate" attributeName="transform" dur="5s" begin="0s" calcMode="spline" values="504.762 701.25; 504.762 599.25; 504.762 701.25; 504.762 701.25" keyTimes="0; 0.5; 0.996667; 1" keySplines="0.333 0 0.667 1; 0.333 0 0.667 1; 0 0 1 1" fill="freeze" /><g transform="rotate(0)"><animateTransform repeatCount="indefinite" type="rotate" attributeName="transform" dur="5s" begin="0s" calcMode="spline" values="0; 4.468; 0; 0" keyTimes="0; 0.5; 0.996667; 1" keySplines="0.333 0 0.667 1; 0.333 0 0.667 1; 0 0 1 1" fill="freeze" /><g transform="scale(1,1) translate(-4.762,-109.25)"><g visibility="hidden" id="i33"><animate repeatCount="indefinite" begin="0s" calcMode="discrete" dur="5s" values="hidden; visible; hidden; hidden" keyTimes="0; 0.337; 0.717; 1" attributeName="visibility" /><g transform="translate(201.692,-174.765)"><animateTransform repeatCount="indefinite" type="translate" attributeName="transform" dur="5s" begin="0s" calcMode="spline" values="201.692 -174.765; 201.692 -174.765; 298.712 -294.749; 298.712 -294.749" keyTimes="0; 0.336667; 0.716667; 1" keySplines="0 0 1 1; 0 0 1 1; 0 0 1 1" fill="freeze" /><g transform="rotate(0.009)"><g transform="scale(0,0)"><animateTransform repeatCount="indefinite" type="scale" attributeName="transform" dur="5s" begin="0s" calcMode="spline" values="0 0; 0 0; -1 1; -0.8 0.8; -0.8 0.8; -1 1; 0 0; 0 0" keyTimes="0; 0.336667; 0.403333; 0.463333; 0.553333; 0.633333; 0.716667; 1" keySplines="0 0 1 1; 0 0 1 1; 0 0 1 1; 0 0 1 1; 0 0 1 1; 0 0 1 1; 0 0 1 1" fill="freeze" /><g transform="translate(201.146,119.011)"><g id="i1"><path fill="#304ee5" d="M-208,-159.25C-208,-159.25,-234.625,-154.5,-234.625,-154.5C-234.625,-154.5,-231.375,-143,-231.375,-143C-231.375,-143,-228.875,-148.125,-228.875,-148.125C-228.875,-148.125,-213.625,-150.5,-213.625,-150.5C-213.625,-150.5,-215.375,-116.5,-215.375,-116.5C-215.375,-116.5,-198.5,-109.75,-196,-116C-193.5,-122.25,-196.5,-128.125,-210.25,-123C-211.125,-123.25,-208,-159.25,-208,-159.25Z" /></g></g></g></g></g></g></g></g></g></g><g id="i9"><g transform="translate(504.762,701.25)"><animateTransform repeatCount="indefinite" type="translate" attributeName="transform" dur="5s" begin="0s" calcMode="spline" values="504.762 701.25; 504.762 599.25; 504.762 701.25; 504.762 701.25" keyTimes="0; 0.5; 0.996667; 1" keySplines="0.333 0 0.667 1; 0.333 0 0.667 1; 0 0 1 1" fill="freeze" /><g transform="rotate(0)"><animateTransform repeatCount="indefinite" type="rotate" attributeName="transform" dur="5s" begin="0s" calcMode="spline" values="0; 4.468; 0; 0" keyTimes="0; 0.5; 0.996667; 1" keySplines="0.333 0 0.667 1; 0.333 0 0.667 1; 0 0 1 1" fill="freeze" /><g transform="scale(1,1) translate(-4.762,-109.25)"><g visibility="hidden" id="i34"><animate repeatCount="indefinite" begin="0s" calcMode="discrete" dur="5s" values="hidden; visible; visible" keyTimes="0; 0.62; 1" attributeName="visibility" /><g transform="translate(151.293,-221.941)"><animateTransform repeatCount="indefinite" type="translate" attributeName="transform" dur="5s" begin="0s" calcMode="spline" values="151.293 -221.941; 151.293 -221.941; 250.167 -340.402" keyTimes="0; 0.62; 1" keySplines="0 0 1 1; 0 0 1 1" fill="freeze" /><g transform="rotate(0.9)"><g transform="scale(0,0)"><animateTransform repeatCount="indefinite" type="scale" attributeName="transform" dur="5s" begin="0s" calcMode="spline" values="0 0; 0 0; -1 1; -0.8 0.8; -0.8 0.8; -1 1; 0 0" keyTimes="0; 0.62; 0.686667; 0.746667; 0.836666; 0.916667; 1" keySplines="0 0 1 1; 0 0 1 1; 0 0 1 1; 0 0 1 1; 0 0 1 1; 0 0 1 1" fill="freeze" /><g transform="translate(201.146,119.011)"><g id="i1"><path fill="#304ee5" d="M-208,-159.25C-208,-159.25,-234.625,-154.5,-234.625,-154.5C-234.625,-154.5,-231.375,-143,-231.375,-143C-231.375,-143,-228.875,-148.125,-228.875,-148.125C-228.875,-148.125,-213.625,-150.5,-213.625,-150.5C-213.625,-150.5,-215.375,-116.5,-215.375,-116.5C-215.375,-116.5,-198.5,-109.75,-196,-116C-193.5,-122.25,-196.5,-128.125,-210.25,-123C-211.125,-123.25,-208,-159.25,-208,-159.25Z" /></g></g></g></g></g></g></g></g></g></g></svg>